<?xml version="1.0" encoding="UTF-8" standalone="no"?>
<svg
   width="718.21973"
   height="860.7821"
   id="svg4304"
   version="1.1"
   inkscape:version="1.2.2 (b0a8486541, 2022-12-01)"
   style="display:inline"
   sodipodi:docname="Netherlands.svg"
   xmlns:inkscape="http://www.inkscape.org/namespaces/inkscape"
   xmlns:sodipodi="http://sodipodi.sourceforge.net/DTD/sodipodi-0.dtd"
   xmlns="http://www.w3.org/2000/svg"
   xmlns:svg="http://www.w3.org/2000/svg"
   xmlns:rdf="http://www.w3.org/1999/02/22-rdf-syntax-ns#"
   xmlns:cc="http://creativecommons.org/ns#"
   xmlns:dc="http://purl.org/dc/elements/1.1/">
  <defs
     id="defs4306">
    <inkscape:perspective
       sodipodi:type="inkscape:persp3d"
       inkscape:vp_x="0 : 420.2821 : 1"
       inkscape:vp_y="0 : 1000 : 0"
       inkscape:vp_z="743 : 420.2821 : 1"
       inkscape:persp3d-origin="371.5 : 273.44877 : 1"
       id="perspective812" />
    <clipPath
       clipPathUnits="userSpaceOnUse"
       id="clipPath10964-7">
      <rect
         style="fill:none;stroke:none"
         id="rect10966-6"
         width="743"
         height="881"
         x="0"
         y="0" />
    </clipPath>
    <clipPath
       clipPathUnits="userSpaceOnUse"
       id="clipPath10968-5">
      <rect
         style="fill:none;stroke:none"
         id="rect10970-1"
         width="743"
         height="881"
         x="0"
         y="0" />
    </clipPath>
    <clipPath
       clipPathUnits="userSpaceOnUse"
       id="clipPath10832-1-6">
      <rect
         style="fill:none;stroke:none"
         id="rect10834-8-1"
         width="743"
         height="881"
         x="0"
         y="0" />
    </clipPath>
    <clipPath
       clipPathUnits="userSpaceOnUse"
       id="clipPath10972-9">
      <rect
         style="fill:none;stroke:none"
         id="rect10974-3"
         width="743"
         height="881"
         x="0"
         y="0" />
    </clipPath>
    <clipPath
       clipPathUnits="userSpaceOnUse"
       id="clipPath10800-7">
      <rect
         style="fill:none;stroke:none"
         id="rect10802-4"
         width="743"
         height="881"
         x="0"
         y="0" />
    </clipPath>
    <clipPath
       clipPathUnits="userSpaceOnUse"
       id="clipPath10804-4">
      <rect
         style="fill:none;stroke:none"
         id="rect10806-6"
         width="743"
         height="881"
         x="0"
         y="0" />
    </clipPath>
  </defs>
  <sodipodi:namedview
     id="base"
     pagecolor="#ffffff"
     bordercolor="#666666"
     borderopacity="1.0"
     inkscape:pageopacity="0.0"
     inkscape:pageshadow="2"
     inkscape:zoom="1.1759364"
     inkscape:cx="403.9334"
     inkscape:cy="697.3166"
     inkscape:document-units="px"
     inkscape:current-layer="layer15"
     showgrid="false"
     inkscape:window-width="3840"
     inkscape:window-height="2136"
     inkscape:window-x="0"
     inkscape:window-y="0"
     inkscape:window-maximized="1"
     showguides="true"
     inkscape:guide-bbox="true"
     inkscape:document-rotation="0"
     inkscape:showpageshadow="2"
     inkscape:pagecheckerboard="0"
     inkscape:deskcolor="#d1d1d1" />
  <metadata
     id="metadata4309">
    <rdf:RDF>
      <cc:Work
         rdf:about="">
        <dc:format>image/svg+xml</dc:format>
        <dc:type
           rdf:resource="http://purl.org/dc/dcmitype/StillImage" />
      </cc:Work>
    </rdf:RDF>
  </metadata>
  <g
     inkscape:groupmode="layer"
     id="layer6"
     inkscape:label="Sea"
     style="display:inline"
     transform="translate(-17.811525,-7.0815875)" />
  <g
     inkscape:label="Other Countries"
     inkscape:groupmode="layer"
     id="layer1"
     style="display:inline"
     transform="translate(-17.811525,-7.0815875)" />
  <g
     inkscape:groupmode="layer"
     id="layer3"
     inkscape:label="Limburg"
     style="display:inline"
     transform="translate(-17.811525,-7.0815875)">
    <path
       style="fill:#c0c0c0;fill-opacity:1;stroke:#000000;stroke-width:1px;stroke-linecap:butt;stroke-linejoin:miter;stroke-opacity:1"
       d="m 506.84404,798.67257 2.52538,-6.81853 -7.82868,-12.37437 9.09137,-8.5863 6.56599,8.83884 c 0,0 4.04061,-5.05077 4.54569,-7.32361 0.50508,-2.27284 -0.25254,-3.78807 2.02031,-4.79822 2.27284,-1.01016 9.09137,-3.03046 10.85914,-5.55584 1.76776,-2.52538 0.75761,-3.03046 3.28299,-6.31346 2.52538,-3.28299 21.2132,-10.35406 21.71828,-11.86929 0.50508,-1.51523 -3.53553,-1.76777 -3.283,-4.29315 0.25254,-2.52538 5.55584,-2.52538 5.30331,-5.05076 -0.25254,-2.52538 -2.27285,-2.52538 -3.53554,-2.52538 -1.26269,0 -11.61675,6.56599 -14.39467,6.31345 -2.77792,-0.25254 -6.81853,-13.38452 -6.81853,-13.38452 l 5.05076,-1.26269 -3.03046,-3.53553 c 0,0 4.79823,-3.283 7.82869,-8.08122 3.03045,-4.79823 7.07106,-17.93021 9.34391,-19.44544 2.27284,-1.51523 7.07106,-2.27284 7.07106,-2.27284 l -1.26269,-2.27285 8.33376,-8.58629 -2.52538,-4.04061 1.76777,-6.31346 -2.77792,-0.75761 1.51523,-4.54569 -2.77792,-31.8198 -17.93021,-21.71828 -4.79822,-3.283 0.50507,-5.55584 c 0,0 2.27285,-1.01015 2.52538,-2.27284 0.25254,-1.26269 -0.25253,-8.83884 -2.0203,-9.34391 -1.76777,-0.50508 -11.11168,-1.26269 -12.12183,-3.53554 -1.01015,-2.27284 -0.75762,-4.04061 -0.75762,-4.04061 l 1.76777,-1.76776 -3.53553,-4.79823 3.78807,-2.77792 c 0,0 -2.52538,-3.28299 -5.3033,-4.04061 -2.77792,-0.75761 -12.12183,-2.0203 -12.12183,-2.0203 l -0.25254,-2.52538 c 0,0 -7.07107,0.50507 -8.83884,-2.02031 -1.76776,-2.52538 -3.03045,-7.57614 -3.03045,-7.57614 h -4.54569 l 0.50508,8.33376 5.05076,8.33375 10.10152,3.53554 2.02031,5.3033 -1.76777,7.32361 7.07107,8.33375 5.80838,5.3033 8.33376,18.94036 c 0,0 -3.53554,2.77792 -6.31346,2.77792 -2.77792,0 -3.53553,-3.28299 -5.3033,-4.04061 -1.76777,-0.75761 -6.06091,-1.51522 -9.34391,-0.25253 -3.283,1.26269 -5.05076,4.29314 -7.32361,3.78807 -2.27284,-0.50508 -7.57614,-4.79823 -9.34391,-4.79823 -1.76776,0 -4.04061,1.01016 -4.04061,1.01016 l 1.51523,17.17259 c 0,0 1.76777,1.01015 3.53554,4.54569 1.76776,3.53553 2.0203,15.9099 2.0203,15.9099 0,0 0.50508,-0.25254 3.283,3.03046 2.77792,3.28299 8.83883,15.40482 8.83883,15.40482 0,0 -9.09137,8.08122 -11.86929,9.84899 -2.77792,1.76777 -34.85026,8.5863 -38.13326,9.59645 -3.283,1.01015 -9.34391,12.37437 -10.6066,15.40483 -1.26269,3.03045 -0.25254,11.36421 -0.25254,11.36421 l -9.59645,2.02031 c 0,0 1.76777,2.77792 6.31346,5.05076 4.54568,2.27284 7.07106,1.26269 10.10152,3.53553 3.03046,2.27285 0.50508,2.27285 3.283,3.78808 2.77792,1.51522 3.28299,0 6.81853,1.01015 3.53553,1.01015 1.76776,1.76776 4.29314,1.76776 2.52539,0 7.82869,-1.51522 7.82869,-1.51522 0,0 -0.50508,5.3033 0.50507,6.81853 1.01016,1.51522 2.27285,2.77792 2.27285,2.77792 0,0 3.03045,-3.03046 7.07106,-3.283 4.04061,-0.25254 3.283,4.79822 3.283,4.79822 l -6.81853,4.29315 -0.25254,4.04061 6.31346,1.76777 -3.78808,3.53553 -4.04061,1.76777 -0.25254,4.04061 2.27285,3.03046 -2.52538,2.0203 -3.283,-0.50507 -2.52538,5.3033 1.26269,8.33376 -1.51523,8.58629 -8.08122,6.31346 4.54569,7.82868 -3.28299,7.07106 -4.79823,3.97747 -2.52539,5.24017 c 0,0 -5.3033,3.91435 -6.31345,5.42958 -1.01015,1.51523 -2.52538,10.6066 0.25254,12.87944 2.77792,2.27285 0.50508,3.03046 4.79823,4.29315 4.29314,1.26269 4.04061,1.26269 4.04061,1.26269 l 1.51522,9.09138 -3.53553,8.33375 c 0,0 5.05076,-2.27284 8.08122,-3.03045 3.03046,-0.75762 3.78807,1.26269 3.78807,1.26269 0,0 1.51523,-8.08122 4.79823,-8.08122 3.28299,0 1.76776,5.3033 1.76776,5.3033 l 7.57615,4.54568 c 0,0 4.29315,-3.78807 5.55584,-4.04061 1.26269,-0.25253 2.52538,2.77792 2.52538,2.77792 l 5.05076,-4.29315 0.50508,3.78808 c 0,0 2.0203,-0.75762 3.53553,-0.50508 1.51523,0.25254 4.04061,3.78807 4.04061,3.78807 0,0 3.53554,-3.28299 6.06092,-4.04061 2.52538,-0.75761 8.08122,3.78807 10.35406,3.283 2.27284,-0.50508 5.55584,-3.53554 3.78807,-5.80838 -1.76776,-2.27284 -12.6269,-8.33376 -12.6269,-8.33376 l 3.53553,-3.53553 c 0,0 3.283,3.03046 6.06092,1.01015 2.77791,-2.0203 1.01015,-12.87944 3.28299,-13.63706 2.27284,-0.75761 5.05076,1.01015 7.32361,-0.50507 2.27284,-1.51523 3.28299,-4.04061 3.28299,-6.31346 0,-2.27284 -2.77792,-4.29315 -2.52538,-6.56599 0.25254,-2.27284 4.79823,-6.81853 4.79823,-6.81853 l -5.05077,-2.52538 -4.54568,-0.75762 -2.77792,-2.27284 h -5.3033 c 0,0 2.0203,-3.53553 2.27284,-6.31345 0.25254,-2.77792 -1.01015,-7.07107 -1.01015,-7.07107 l -12.12183,-2.52538 z"
       id="path4890"
       inkscape:connector-curvature="0"
       sodipodi:nodetypes="cccccssssssssscccsscccccccccccsssccccsccsccccccccccsssssccscscsssccssssscscsccccccccccccccccccssscccscsccscccscsssccssssscccccsccc" />
  </g>
  <g
     inkscape:groupmode="layer"
     id="layer4"
     inkscape:label="Zealand"
     style="display:inline"
     transform="translate(-17.811525,-7.0815875)">
    <path
       id="path4893"
       style="fill:#c0c0c0;fill-opacity:1;stroke:#000000;stroke-width:1px;stroke-linecap:butt;stroke-linejoin:miter;stroke-opacity:1"
       d="m 101.07617,563.72266 c -0.70975,0.004 -1.477956,0.0455 -2.32617,0.13476 -6.785714,0.71429 -11.607422,2.67857 -16.607422,7.5 -5,4.82143 -4.107422,6.60632 -2.857422,8.92774 1.25,2.32143 5.35798,6.78682 14.822266,5.17968 9.464288,-1.60715 4.464289,-7.14396 11.249998,-7.67968 4.82143,0 2.85632,3.39341 6.42774,5.71484 3.57143,2.32143 6.42997,-2.8e-4 8.03711,2.14258 1.60714,2.14285 0.17801,9.82199 3.03515,11.96484 2.85715,2.14286 5.53516,-0.71484 8.03516,0.53516 2.5,1.25 0.17801,3.92913 3.03515,4.46484 2.85714,0.53572 11.42857,0.17745 17.5,-3.92969 6.07143,-4.10714 10.89398,-7.49944 8.92969,-13.03515 -1.96428,-5.53572 -8.03544,-1.25056 -12.14258,-3.21485 -4.10715,-1.96428 -4.10686,-8.92828 -8.39257,-12.14257 -4.28572,-3.21428 -15.89425,-3.74945 -24.28711,-4.28516 -7.34375,-0.46875 -9.49073,-2.3042 -14.45899,-2.27734 z m 68.32813,27.93945 c -0.35967,-0.009 -0.69922,0.008 -1.01172,0.0527 -5,0.71428 -8.92884,4.10631 -7.85742,6.42774 1.07143,2.32143 14.10825,4.46484 13.92968,6.96484 -0.17858,2.5 -4.10686,3.21485 -7.14257,3.21485 -3.03572,0 -2.67913,-3.03711 -9.46485,-3.03711 -6.78571,0 -18.57226,1.96484 -18.57226,5.71484 0,3.75 5.17858,3.92885 6.25,5.35742 1.07143,1.42857 0.35825,4.64203 1.42968,5.17774 1.07142,0.53572 3.21428,-0.71428 5,1.25 1.78571,1.96429 -0.89369,4.10825 2.67774,6.42968 3.57143,2.32142 15.7154,0.17802 17.67969,1.78516 1.96428,1.60714 4.10546,4.10742 4.10546,4.10742 h 6.78711 l 1.25,-11.25 -6.07226,-9.82226 1.25,-10 L 185,597.60742 c 0,0 -10.20063,-5.80799 -15.5957,-5.94531 z m -57.10352,15.16016 c -5.09116,-0.12696 -12.635884,1.63253 -16.408202,2.21289 -4.642857,0.71429 -4.999442,-2.32003 -10.535156,-1.96289 C 79.821708,607.42941 75,610.28516 75,610.28516 c 0,0 7.678572,8.03655 8.75,11.07226 1.071429,3.03572 0.714286,4.46485 2.5,4.46485 1.785714,0 2.320591,-0.71429 5.177734,-2.5 2.857142,-1.78572 4.821984,-2.67969 9.464846,-2.67969 4.64285,0 14.64258,2.5 15.89258,2.5 1.25,0 5.53711,-3.03599 5.53711,-5.35742 0,-2.32142 -2.50056,-9.10659 -6.96485,-10.53516 -0.83705,-0.26786 -1.88176,-0.39844 -3.05664,-0.42773 z M 63.035156,608.5 c -7.857142,0 -21.785435,11.96513 -23.392578,12.32227 C 38.035435,621.17941 36.25,620.64202 35,622.42773 c -1.25,1.78572 -1.071149,5.53601 -0.892578,6.60743 0.178571,1.07143 2.142299,0.35798 3.035156,2.32226 0.892857,1.96429 16.607422,20.53572 21.607422,22.5 5,1.96429 13.036551,1.07143 14.822266,0 1.785714,-1.07143 6.249163,-6.07226 7.677734,-6.07226 1.428572,0 1.963448,0.89286 1.427734,2.5 C 82.142019,651.89231 80,651.53655 81.25,653.32227 c 1.25,1.78571 4.285993,3.03515 5.357422,5.53515 1.071429,2.5 2.320871,4.82199 4.285156,5.71485 1.964286,0.89286 6.964007,-0.71513 8.392578,0.17773 1.428574,0.89286 5.179684,8.39258 7.679684,8.39258 2.5,0 2.50029,-3.03544 5.35743,-3.39258 2.85714,-0.35714 4.4626,0.71374 7.85546,-0.71484 3.39286,-1.42857 3.21458,-13.92774 9.10743,-16.42774 5.89286,-2.5 10.53711,-2.32255 13.03711,1.07031 2.5,3.39286 1.42689,3.03628 2.85546,4.46485 1.42857,1.42857 3.03656,-0.35603 4.82227,1.42969 1.78571,1.78571 1.78543,4.64257 4.64258,7.14257 2.85714,2.5 5.89397,5.35714 11.42969,5 5.53571,-0.35715 4.4626,-4.64257 9.10546,-4.64257 4.64286,0 10.35798,5.89202 12.32227,7.67773 1.96429,1.78571 3.03516,1.07227 3.03516,1.07227 l 3.39257,-0.53711 -2.5,-6.60743 c 0,0 2.5,-0.71399 2.5,-2.14257 0,-1.42857 -3.92773,-10 -3.92773,-10 0,0 -0.71345,0.35854 -3.92773,0.53711 -3.21429,0.17857 -7.50168,-0.35826 -10.89454,-0.17969 -3.39286,0.17857 -3.92828,1.42969 -7.14257,1.42969 -3.21428,0 -6.96457,-2.67886 -10.35743,-6.60743 -3.39286,-3.92858 -5.89174,-12.67829 -7.32031,-13.39257 -1.42857,-0.71429 -2.5,-0.17913 -3.75,-0.71485 -1.25,-0.53571 -6.60797,-6.4283 -9.82226,-7.14258 -3.21428,-0.71429 -4.82171,0.35714 -6.60743,-1.25 -1.78571,-1.60715 -0.7126,-2.8577 -2.85546,-3.21484 -2.14286,-0.35714 -3.03601,1.07115 -5.35743,0.89258 -2.32143,-0.17857 -4.46456,-2.5 -5.35742,-2.5 -0.89285,0 -0.71428,1.42969 -3.75,1.42969 -3.03571,0 -12.14341,-2.67913 -16.964842,-0.71485 -4.821428,1.96429 -6.428013,6.96429 -9.285156,6.25 -2.857143,-0.71428 -4.285435,-1.78544 -4.642578,-3.39258 -0.357143,-1.60715 1.250279,-0.71456 -0.892578,-2.85742 C 78.929409,622.96457 70.892299,608.5 63.035156,608.5 Z m -13.554687,55.99609 c -2.72391,0.0604 -6.106212,0.58302 -8.947266,1.84571 -4.545687,2.02031 -22.097656,8.96679 -22.097656,8.96679 0,0 0.631057,1.89249 1.388672,4.03907 0.757614,2.14657 3.662694,2.40001 3.410156,5.93554 -0.252539,3.53554 -3.662307,4.16632 -4.419922,7.82813 -0.757614,3.6618 3.155665,4.41953 3.408203,5.42969 0.252538,1.01015 -0.631444,4.04131 -0.378906,5.17773 0.252538,1.13642 1.26397,1.7666 2.400391,3.0293 1.136422,1.26269 3.914359,1.51523 5.050781,2.52539 1.136421,1.01015 2.651857,3.53662 3.283203,4.16797 0.631345,0.63134 17.046587,1.76728 18.435547,0.63086 1.388959,-1.13642 -1.136719,-2.52442 -1.136719,-3.78711 0,-1.26269 1.514356,-1.51602 1.640625,-3.03125 0.126269,-1.51523 -1.641012,-3.15665 -0.630859,-4.67188 1.010152,-1.51523 4.419832,-3.03125 6.566406,-3.03125 2.146574,0 4.292581,3.41073 5.302734,3.1582 1.010153,-0.25254 -0.883586,-6.06132 1.136719,-6.5664 2.020305,-0.50507 6.691802,3.9132 8.207031,5.55469 1.515229,1.6415 7.829403,0.63242 10.228516,1.64257 2.399112,1.01015 3.408599,3.15567 4.923828,3.40821 1.515229,0.25253 1.515635,-0.37754 4.041016,-0.125 2.525382,0.25253 7.070024,2.39824 8.458984,4.16601 1.388957,1.76776 -0.631444,6.1881 -0.378906,8.46094 0.252538,2.27285 0.758203,4.292 2.273433,5.55469 1.51523,1.26269 8.33322,0.50586 10.35352,0.50586 2.02031,0 3.41045,-3.53585 4.54688,-3.66211 1.13642,-0.12627 3.4082,0.37793 3.4082,1.64062 0,1.26269 -2.39903,1.26417 -2.14649,3.15821 0.25254,1.89404 0.63224,2.65097 3.41016,2.39843 2.77792,-0.25254 4.79854,-6.31377 6.1875,-6.1875 1.38896,0.12627 3.53545,2.77871 4.67187,3.03125 1.13642,0.25253 11.36436,-9.97656 13.00586,-9.97656 1.6415,0 2.77629,2.65214 6.18555,1.89453 3.40927,-0.75762 26.64424,-23.48486 28.0332,-25.3789 1.38896,-1.89403 1.0087,-3.53535 1.89258,-4.29297 0.88389,-0.75761 3.66211,-2.02149 3.66211,-2.02149 0,0 -1.89395,-4.04074 -4.67187,-7.95508 -2.77792,-3.91434 -6.05987,-3.28349 -8.45899,-1.89453 -2.39911,1.38896 2.27305,5.43067 0.75782,6.69336 -1.51523,1.26269 -5.4296,-4.16787 -7.57618,-3.78906 -2.14657,0.37881 3.53467,5.6838 1.64063,6.44141 -1.89403,0.75762 -6.18614,-4.41973 -8.45899,-6.1875 -2.27284,-1.76777 -8.2088,-2.02004 -9.97656,-3.91407 -1.76777,-1.89404 -2.27237,-3.91544 -3.15625,-6.69336 -0.88388,-2.77792 -3.15694,-3.28193 -5.80859,-3.4082 -2.65165,-0.12627 -4.41992,1.13477 -4.41992,1.13477 0,0 -2.01925,11.86934 -3.40821,12.62695 -1.38896,0.75762 -1.64171,-0.75672 -5.80859,0.88477 -4.16688,1.6415 -12.5,9.09179 -12.5,9.09179 0,0 -9.34493,-4.16758 -11.36524,-5.17773 -2.020301,-1.01016 -2.021093,-0.75713 -3.031246,-0.63086 -1.010152,0.12627 -2.146484,4.41992 -2.146484,4.41992 0,0 -17.42355,-12.12285 -21.337891,-13.89062 -3.914341,-1.76777 -7.703332,-0.75753 -10.986328,-2.14649 -3.282996,-1.38896 -8.33331,-6.06006 -10.732422,-6.69141 -0.899667,-0.23675 -2.297294,-0.36828 -3.93164,-0.33203 z" />
  </g>
  <g
     inkscape:groupmode="layer"
     id="layer7"
     inkscape:label="North Brabant"
     style="display:inline"
     transform="translate(-17.811525,-7.0815875)">
    <path
       style="fill:#c0c0c0;fill-opacity:1;stroke:#000000;stroke-width:1px;stroke-linecap:butt;stroke-linejoin:miter;stroke-opacity:1"
       d="m 426.96875,539.03125 -5.90625,5.375 -11.78125,-2.15625 -4.8125,3.40625 -9.8125,16.59375 -11.25,5.34375 -11.25,-2.84375 -12.875,0.53125 -2.125,-7.6875 -7.15625,-3.5625 -3.21875,2.5 -16.4375,-13.5625 -14.28125,-1.4375 -4.625,3.03125 -16.78125,6.4375 -6.625,1.96875 -4.8125,10 -12.5,8.9375 c 0,0 -4.65625,5.16072 -12.15625,8.375 -7.5,3.21429 -15.16518,5.35715 -24.09375,2.5 -8.92858,-2.85714 -10.1875,-3.375 -12.6875,-3.375 -2.5,0 -2.84375,0.875 -2.84375,0.875 0,0 0.69197,4.27679 -2.34375,8.5625 -3.03571,4.28572 -15.52232,11.63393 -21.59375,10.5625 -6.07143,-1.07143 -8.75,-1.8125 -8.75,-1.8125 l -6.875,8.78125 -0.9375,7.40625 -0.0312,0.25 v 0.0312 l 6.0625,9.78125 0.34375,0.5625 -0.875,10.6875 c 0,0 9.63393,5.20089 9.8125,13.59375 0.12062,5.6692 -3.402,7.57147 -5.71875,8.21875 1.55692,-0.17578 1.96875,-0.375 1.96875,-0.375 0,0 3.9375,8.57143 3.9375,10 0,1.42858 -2.5,2.15625 -2.5,2.15625 l 2.5,6.59375 -1.1875,0.1875 h 0.8125 c 0,0 7.52232,-1.0625 8.59375,-1.0625 1.07143,0 2.85714,9.44643 8.75,9.625 5.89285,0.17858 12.65625,-5.1875 12.65625,-5.1875 l -8.375,-15.53125 c 0,0 1.60714,-0.33928 1.25,-2.125 -0.35714,-1.78571 -3.21875,-3.75 -3.21875,-3.75 0,0 2.30803,-2.50447 7.84375,-4.46875 5.53571,-1.96429 7.5,-0.36161 10,-1.96875 2.5,-1.60714 0.54018,-2.87053 1.96875,-3.40625 1.42858,-0.53571 8.58482,-2.85714 12.15625,-1.25 3.57143,1.60715 -1.25893,6.79018 -1.4375,9.46875 -0.17857,2.67857 1.78125,6.625 1.78125,6.625 0,0 5.91071,-1.44196 10.375,-2.15625 4.46428,-0.71428 5.33482,3.04911 10.15625,2.15625 4.82143,-0.89286 3.9375,-1.25 3.9375,-1.25 0,0 -0.72322,-3.5759 2.3125,-5.71875 3.03571,-2.14286 3.3884,-0.70536 5.53125,-3.5625 2.14286,-2.85715 0.90625,-4.82589 3.40625,-6.96875 2.5,-2.14286 7.66964,-5.90179 9.8125,-6.4375 2.14286,-0.53571 9.11161,6.61607 9.46875,8.9375 0.35715,2.32143 -1.59375,0.87947 -1.59375,5.34375 v 9.65625 c 0,0 -4.65625,-2.86607 -8.40625,-1.4375 -3.75,1.42857 -5.16965,5.35268 1.4375,5.53125 6.60714,0.17858 16.77232,-0.89285 20.34375,0 3.57143,0.89286 5.53125,5.53125 5.53125,5.53125 L 334.65625,656 l -0.375,-6.59375 5.90625,-5.5625 c 0,0 0.004,3.04018 3.21875,4.46875 3.21428,1.42857 5.86608,1.08482 8.1875,7.15625 2.32143,6.07142 2.6875,6.4375 2.6875,6.4375 0,0 -3.40178,1.22768 -5.1875,5.15625 -1.78571,3.92857 -2.67857,5.20089 1.25,9.84375 3.92858,4.64285 6.09821,7.125 8.0625,10.875 1.96428,3.75 -0.18303,6.78125 1.78125,8.03125 1.96429,1.25 2.85268,1.25893 5.53125,0.1875 2.67857,-1.07143 -0.37054,-2.66518 4.09375,-2.84375 4.46429,-0.17857 9.46875,2.67411 9.46875,6.78125 0,4.10714 -2.3125,10 -2.3125,10 0,0 16.25,-0.53125 21.25,-0.53125 5,0 13.9375,2.3125 13.9375,2.3125 0,0 2.65625,-4.10715 5.15625,-5 2.5,-0.89286 3.3884,0.34822 5.53125,-0.1875 2.14286,-0.53571 3.93304,-5.71875 9.46875,-3.21875 5.53571,2.5 3.41072,4.48214 5.375,6.625 1.96429,2.14286 3.5625,2.65625 3.5625,2.65625 0,0 -1.08036,1.45535 -0.1875,5.5625 0.55804,2.56696 1.38818,4.02673 1.9375,4.75 l 9.5625,-2 c 0,0 -1.01269,-8.34455 0.25,-11.375 1.26269,-3.03046 7.31075,-14.3961 10.59375,-15.40625 3.283,-1.01015 35.34708,-7.82598 38.125,-9.59375 2.77792,-1.76777 11.875,-9.84375 11.875,-9.84375 0,0 -6.06583,-12.12326 -8.84375,-15.40625 -2.77792,-3.283 -3.28125,-3.03125 -3.28125,-3.03125 0,0 -0.23224,-12.37072 -2,-15.90625 -1.76777,-3.53554 -3.5625,-4.5625 -3.5625,-4.5625 l -1.5,-17.15625 c 0,0 2.26349,-1.03125 4.03125,-1.03125 1.76777,0 7.07091,4.30742 9.34375,4.8125 2.27285,0.50507 4.06075,-2.51856 7.34375,-3.78125 3.283,-1.26269 7.57598,-0.50761 9.34375,0.25 1.76777,0.75762 2.50333,4.03125 5.28125,4.03125 2.77792,0 6.3125,-2.78125 6.3125,-2.78125 l -8.3125,-18.9375 -5.8125,-5.3125 -7.0625,-8.3125 1.75,-7.34375 -2.03125,-5.28125 -10.09375,-3.5625 -5.03125,-8.3125 -0.0312,-0.5625 -0.84375,-0.59375 -8.0625,-2.5 -12.5,0.34375 -15.875,-10.1875 -8.21875,-9.46875 -15.1875,-0.6875 -4.09375,3.375 -7.5,-3.75 z M 324.25,654.21875 l -5.53125,8.34375 -1.03125,-7.09375 z"
       id="path4912"
       inkscape:connector-curvature="0" />
  </g>
  <g
     inkscape:groupmode="layer"
     id="layer8"
     inkscape:label="Gelderland"
     style="display:inline"
     transform="translate(-17.811525,-7.0815875)">
    <path
       style="fill:#c0c0c0;fill-opacity:1;stroke:#000000;stroke-width:1px;stroke-linecap:butt;stroke-linejoin:miter;stroke-opacity:1"
       d="m 489.46875,329.21875 c 0,0 1.61161,11.25446 -9.28125,24.46875 -10.89285,13.21429 -20.71875,15.33928 -23.21875,17.125 -2.5,1.78571 0.16964,2.70089 -3.9375,4.84375 -4.10715,2.14285 -5.71429,0.70982 -7.5,1.78125 -1.78572,1.07143 0.17857,2.125 -1.25,4.625 -1.42858,2.5 -6.25892,4.28571 -7.6875,7.5 -1.42857,3.21428 -3.20982,13.57143 -5.53125,16.25 -2.32143,2.67857 -23.90625,6.625 -23.90625,6.625 0,0 1.07143,6.59821 2.5,9.8125 1.42857,3.21428 4.08482,4.2991 3.90625,5.90625 -0.17857,1.60714 -2.5,3.90179 -2.5,5.6875 0,1.78572 10.91518,3.9375 12.34375,6.4375 1.42857,2.5 3.20535,6.97322 -0.1875,13.9375 -3.39286,6.96429 -4.28125,6.41965 -3.03125,8.5625 1.25,2.14286 4.9866,2.86161 9.09375,-0.53125 4.10714,-3.39286 3.92857,-7.33482 6.25,-5.90625 2.32142,1.42857 1.07589,10.90625 1.96875,13.40625 0.89286,2.5 2.67857,1.61607 3.75,3.9375 1.07143,2.32143 -0.71428,3.19643 0,5.875 0.71429,2.67857 2.51339,1.25447 3.40625,4.46875 0.89286,3.21429 -1.79911,2.6741 0.34375,5.53125 2.14286,2.85714 5.87947,3.20982 6.59375,5.53125 0.71429,2.32143 -0.875,8.75 -0.875,8.75 l -11.78125,-0.6875 -19.65625,-10.71875 -22.5,6.40625 -3.03125,2.6875 -8.9375,-1.25 -7.5,-5.34375 -7.84375,4.28125 -5.90625,-3.03125 c 0,0 0.19643,6.0625 -0.875,8.5625 -1.07143,2.5 -8.75,16.26339 -11.25,17.15625 -2.5,0.89285 -5.1875,-0.0134 -6.4375,1.59375 -1.25,1.60714 -0.90179,4.28125 -2.6875,5.53125 -1.78571,1.25 -9.46875,0.53572 -10.71875,1.25 -1.25,0.71429 -2.13839,4.47322 -0.53125,5.1875 1.60714,0.71429 4.64733,-0.35268 5.71875,0.71875 1.07143,1.07143 -0.71875,6.59375 -0.71875,6.59375 l -3.59375,1.9375 14.3125,11.8125 3.21875,-2.5 7.15625,3.5625 2.125,7.6875 12.875,-0.53125 11.25,2.84375 11.25,-5.34375 9.8125,-16.59375 4.8125,-3.40625 11.78125,2.15625 5.90625,-5.375 7.5,3.75 4.09375,-3.375 15.1875,0.6875 8.21875,9.46875 15.875,10.1875 12.5,-0.34375 8.0625,2.5 0.84375,0.59375 -0.5,-7.78125 h 4.5625 c 0,0 1.26349,5.03712 3.03125,7.5625 1.76777,2.52538 8.84375,2.03125 8.84375,2.03125 v 0.0625 c 3.62409,-1.532 6.69489,-4.13578 6.0625,-8.5625 -1.42857,-10 -7.6875,-12.5 -7.6875,-12.5 l 4.125,-4.28125 c 0,0 6.61161,1.97768 13.21875,-2.84375 6.60714,-4.82143 4.4375,-8.03125 4.4375,-8.03125 l 17.6875,5.875 c 0,0 0.53571,-5.1875 -1.25,-7.6875 -1.78572,-2.5 -10.34375,-8.375 -10.34375,-8.375 l 9.625,-2.15625 c 0,0 6.60268,8.20982 9.28125,9.28125 2.67858,1.07143 13.39286,-0.17411 15,0.71875 1.60715,0.89285 4.46875,6.25 4.46875,6.25 0,0 7.33036,-0.875 8.9375,0.375 1.60714,1.25 2.5,4.09375 2.5,4.09375 l 7.3125,1.78125 -0.15625,-6.40625 c 0,0 -5.89286,-3.05357 -2.5,-5.375 3.39286,-2.32143 4.45535,2.67857 7.3125,2.5 2.85714,-0.17857 3.38392,-1.96875 4.8125,-1.96875 1.42857,0 1.61607,3.20982 3.9375,3.03125 2.32143,-0.17857 11.59821,-5.87947 12.3125,-7.84375 0.71428,-1.96429 0.36161,-3.22768 1.96875,-3.40625 1.60714,-0.17857 2.15179,2.32589 3.9375,1.96875 1.78572,-0.35715 5.34822,-4.09375 9.8125,-6.59375 4.46429,-2.5 10,-5.1875 10,-5.1875 0,0 4.29465,5.73214 7.6875,5.375 3.39286,-0.35715 7.3125,-4.29464 11.0625,-7.6875 3.75,-3.39285 5.34375,-8.03125 5.34375,-8.03125 0,0 -1.95536,-0.72322 -1.0625,-2.6875 0.89285,-1.96429 3.74554,-1.25 4.28125,-3.75 0.53571,-2.5 -0.16964,-6.0625 -1.0625,-7.3125 -0.89286,-1.25 -4.09375,-1.09375 -4.09375,-1.09375 0,0 -4.30804,-5.16518 -9.84375,-9.09375 -5.53571,-3.92857 -12.5,-7.15625 -12.5,-7.15625 l -0.53125,-6.78125 c 0,0 6.62054,1.62054 9.65625,-1.59375 3.03572,-3.21428 1.40625,-12.6875 1.40625,-12.6875 0,0 -4.45982,0 -9.28125,-1.25 -4.82143,-1.25 -5.35714,-1.23215 -6.25,-2.125 -0.89286,-0.89286 0.1875,-10.02678 -1.0625,-11.8125 -1.25,-1.78571 -2.3125,-3.03125 -2.3125,-3.03125 0,0 -6.42411,4.125 -8.03125,4.125 -1.60714,0 -1.79911,-4.10268 -3.40625,-4.28125 -1.60714,-0.17858 -8.20089,1.05357 -10.34375,0.875 -2.14286,-0.17857 -4.3125,-1.4375 -4.3125,-1.4375 0,0 -4.25893,3.04018 -5.6875,1.96875 -1.42857,-1.07143 -8.41072,-9.44197 -9.125,-11.40625 -0.71429,-1.96429 -0.17411,-3.95536 -3.03125,-6.8125 -2.85714,-2.85714 -10.1875,-3.19642 -13.9375,-0.875 -3.75,2.32143 -4.28125,7.5 -4.28125,7.5 0,0 -4.63839,-2.85268 -9.28125,-3.03125 -4.64286,-0.17857 -11.78125,0.34375 -11.78125,0.34375 0,0 0.52678,-1.78571 -1.4375,-2.5 -1.96429,-0.71428 -4.8125,1.0625 -4.8125,1.0625 l -6.25,-5.34375 -5.90625,-15.1875 c 0,0 -7.14286,0 -8.75,-1.25 -1.60714,-1.25 -4.10714,-11.24107 -2.5,-12.3125 1.60714,-1.07143 7.34375,-4.46875 7.34375,-4.46875 L 542.84375,366 c 0,0 -6.06696,-0.89286 -8.03125,-3.75 -1.96429,-2.85714 -0.17411,-6.07143 0.71875,-6.25 0.89285,-0.17857 3.21875,-1.25 3.21875,-1.25 l -10,-15.90625 -8.03125,-4.625 L 510,344.5625 l -2.84375,-3.21875 -2.5,2.6875 -11.09375,-14.625 z"
       id="path4915"
       inkscape:connector-curvature="0" />
  </g>
  <g
     inkscape:groupmode="layer"
     id="layer9"
     inkscape:label="South Holland"
     style="display:inline"
     transform="translate(-17.811525,-7.0815875)">
    <path
       id="path4918"
       style="fill:#c0c0c0;fill-opacity:1;stroke:#000000;stroke-width:1px;stroke-linecap:butt;stroke-linejoin:miter;stroke-opacity:1"
       d="m 236.0625,386.1875 c 0,0 -4.64286,9.46429 -13.75,26.25 -9.10714,16.78571 -26.05357,35.87054 -35.875,47.65625 -9.82143,11.78572 -23.59375,30.1875 -23.59375,30.1875 0,0 5.36161,8.75446 3.21875,6.96875 -2.14286,-1.78572 -10.16964,-4.09821 -13.5625,-4.8125 -3.39286,-0.71429 -2.1384,-1.96429 -4.28125,-2.5 -2.14286,-0.53571 -5.36607,-0.1875 -5.1875,3.5625 0.17858,3.75 3.04018,3.91518 3.21875,6.59375 0.17857,2.67857 -5.72322,7.34375 -6.4375,8.59375 -0.71429,1.25 -2.47768,2.85268 -0.15625,5.53125 2.32143,2.67858 9.25893,-3.04911 10.6875,-0.90625 1.42857,2.14285 -1.76339,3.40625 -2.65625,7.15625 -0.89286,3.75 2.49553,3.93304 4.28125,5.71875 1.78571,1.78571 0.33929,2.14732 2.125,5.71875 1.78572,3.57142 6.45535,4.99108 9.3125,6.0625 2.85714,1.07143 1.76339,-0.70536 6.40625,0.1875 4.64286,0.89285 2.86607,3.02232 7.6875,5.34375 4.82143,2.32143 13.0491,4.6384 14.65625,6.78125 1.60714,2.14286 -1.44196,3.04018 2.84375,6.96875 4.28571,3.92857 7.84375,3.57589 12.84375,5.71875 5,2.14285 7.16964,5.1875 15.5625,8.9375 8.39285,3.75 15.52678,5.88839 23.5625,5.53125 8.03571,-0.35714 10.17857,-5.5491 15,-8.40625 4.82142,-2.85714 11.25,0.1875 11.25,0.1875 l 11.0625,-7.15625 5.53125,-9.625 15.1875,-4.28125 6.78125,-5.5625 16.625,-0.34375 7.96875,-0.59375 c 0.45926,-1.66491 1.17683,-4.69817 0.40625,-5.46875 -1.07142,-1.07143 -4.11161,-0.004 -5.71875,-0.71875 -1.60714,-0.71428 -0.71875,-4.47321 0.53125,-5.1875 1.25,-0.71428 8.93304,0 10.71875,-1.25 1.78571,-1.25 1.4375,-3.92411 2.6875,-5.53125 1.25,-1.60715 3.9375,-0.7009 6.4375,-1.59375 2.5,-0.89286 10.17857,-14.65625 11.25,-17.15625 0.98772,-2.30469 0.89506,-7.4309 0.875,-8.25 l -5,-5.5 -6.0625,-4.65625 -11.4375,7.34375 -9.8125,1.59375 -4.28125,3.9375 L 316.4375,504.75 H 311.25 c 0,0 -0.72768,-4.27679 -4.65625,-8.5625 -3.92857,-4.28571 -7.29465,-8.22768 -6.9375,-9.65625 0.35714,-1.42857 4.08036,-0.53571 5.6875,-1.25 1.60715,-0.71428 1.98661,-2.50447 1.09375,-3.21875 -0.89286,-0.71429 -8.94196,0.54464 -9.65625,-1.0625 -0.71428,-1.60714 2.14286,-6.79465 3.75,-7.6875 1.60715,-0.89286 3.76339,0.19643 4.65625,-0.875 0.89286,-1.07143 2.31696,-3.59375 1.78125,-4.84375 -0.53572,-1.25 -5,-0.34375 -5,-0.34375 0,0 -1.4375,-2.3125 -2.6875,-6.0625 -1.25,-3.75 0.90178,-5.89732 0.1875,-8.21875 -0.71429,-2.32142 -3.21875,-1.24108 -4.46875,-3.5625 -1.25,-2.32143 0.35268,-4.84375 3.03125,-6.09375 2.67858,-1.25 7.67411,-0.15625 9.28125,-0.15625 1.60714,0 4.28571,-4.66518 3.75,-6.09375 -0.53572,-1.42857 -8.02233,-4.63393 -10.34375,-7.3125 -2.32143,-2.67857 -1.25,-3.40625 -1.25,-3.40625 0,0 -4.82143,0.0268 -6.25,-1.9375 -1.42025,-1.95283 3.34321,-4.26181 1.46875,-6.21875 -0.0137,0.005 -0.125,0.0312 -0.125,0.0312 l -16,15.46875 L 278.40625,421 c 0,0 1.22399,-2.00946 2.5,-4.5625 0.0356,-0.11326 0.0306,-0.0916 0.0625,-0.1875 0.13404,-0.40297 0.28125,-0.78125 0.28125,-0.78125 0,0 -5.55183,-0.009 -10.9375,0.96875 -0.57189,0.72131 -1.21875,1.53125 -1.21875,1.53125 l -3.1875,5 c 0,0 -3.90772,-0.71132 -7.6875,-1.59375 -3.12774,1.57643 -6.18266,3.13856 -8.5625,3.90625 -5.53572,1.78572 -8.0625,-0.1875 -8.0625,-0.1875 0,0 0.36608,-1.75893 2.6875,-3.1875 2.32143,-1.42858 5.1875,-3.21875 5.1875,-3.21875 0,0 -0.0664,-0.0891 -0.15625,-0.25 -0.32501,-0.13539 -1.625,-0.65625 -1.625,-0.65625 L 235,390.09375 c 0,0 0.72228,-1.96271 1.34375,-3.65625 -0.0597,-0.0514 -0.28125,-0.25 -0.28125,-0.25 z m -93.91992,145.52734 c -1.60715,-0.35714 -14.64174,5.71289 -17.32031,6.96289 -2.67857,1.25 -1.43025,0.17913 -3.39454,0.71485 -1.96428,0.53571 -6.9626,5.17885 -7.85546,6.60742 -0.89286,1.42857 1.60685,5.53543 3.39257,5.89258 1.78571,0.35714 2.14285,-0.53544 7.5,-3.39258 5.35714,-2.85714 9.9989,-3.21401 16.07032,-0.89258 6.07143,2.32143 8.75055,22.67857 10.71484,25 1.96429,2.32143 11.96374,1.96346 16.78516,3.92774 4.82143,1.96429 2.50139,2.50055 5.53711,4.46484 3.03571,1.96429 8.57004,2.85742 11.96289,4.10742 3.39286,1.25 3.75,3.92745 5,4.82031 1.25,0.89286 2.14369,10e-4 4.82226,0.17969 2.67857,0.17857 2.67774,2.7e-4 6.42774,0.35742 3.75,0.35714 8.57253,-8.3e-4 11.42968,-4.82226 -0.48719,-2.0528 -1.81642,-4.30536 -6.25,-7.32031 -5,-4.46429 -9.8217,-5.00029 -14.10742,-7.85743 -4.28571,-2.85715 -4.10658,-4.64341 -9.28515,-10.71484 -5.17857,-6.07143 -13.03656,-8.21401 -17.32227,-10.89258 -4.28571,-2.67857 -22.50028,-16.78543 -24.10742,-17.14258 z" />
  </g>
  <g
     inkscape:groupmode="layer"
     id="layer10"
     inkscape:label="North Holland"
     style="display:inline"
     transform="translate(-17.811525,-7.0815875)">
    <path
       id="path4923"
       style="fill:#c0c0c0;fill-opacity:1;stroke:#000000;stroke-width:1px;stroke-linecap:butt;stroke-linejoin:miter;stroke-opacity:1"
       d="m 302.11133,122.56641 c -4.23423,0.18329 -14.87863,18.78571 -17.64649,24.14843 -2.85715,5.53572 -3.03543,6.78544 -5.89257,12.14258 -2.85714,5.35714 -4.82255,6.25056 -5.17969,11.96485 -0.35715,5.71428 -0.89286,14.99916 7.5,15.17773 6.07143,0.89286 10.1783,-11.42773 13.39258,-12.67773 3.21429,-1.25 3.21568,1.07059 5.53711,-1.07227 2.32143,-2.14286 0.17828,-5.17801 3.39257,-8.03516 3.21428,-2.85714 4.10659,-1.42857 5.53516,-5 1.42857,-3.57142 -1.42829,-3.75111 -0.89258,-7.67968 0.53572,-3.92857 3.92884,-13.39285 2.85742,-15 -1.07143,-1.60714 -2.67858,0.17912 -3.75,-1.78516 -1.07143,-1.96429 -0.53627,-11.07115 -4.46484,-12.14258 -0.12277,-0.0335 -0.25208,-0.0469 -0.38867,-0.041 z m -32.46875,62.63086 c -1.65179,-0.0893 -3.74888,0.26618 -6.07031,0.98046 -4.64286,1.42857 -6.96597,5.35743 -4.64454,6.60743 2.32143,1.25 15.53601,-1.78544 14.10743,-5.89258 -0.53571,-1.07143 -1.7408,-1.60603 -3.39258,-1.69531 z m 16.29492,7.32031 c -2.72321,0.0446 -5.93805,0.44642 -7.90234,1.875 -3.92857,2.85714 -4.82003,13.92941 -6.96289,23.57226 -2.14286,9.64286 -0.71541,10.89286 -3.92969,21.25 -3.21429,10.35715 -8.21485,23.03544 -8.21485,25.89258 0,2.85714 2.32227,6.07143 2.32227,10 0,3.92857 -3.75084,7.50056 -3.57227,16.96485 0.17857,9.46428 0.53656,8.74944 -1.42773,19.28515 -1.96429,10.53572 -6.96484,32.67774 -6.96484,32.67774 0,0 -0.71289,6.25139 -1.96289,13.03711 -1.25,6.78571 -5.71513,13.03459 -7.32227,18.57031 -1.60714,5.53571 -5,14.46484 -5,14.46484 l 12.67773,27.67774 c 0,0 1.25084,0.53627 4.82227,1.96484 3.57143,1.42857 13.39258,3.21484 13.39258,3.21484 l 3.21484,-5 c 0,0 10.35715,-13.7514 13.75,-11.78711 C 286.25028,408.14202 278.39258,421 278.39258,421 l 0.17969,12.67773 15.98046,-15.44531 c 0,0 4.73353,-1.69615 7.41211,-4.01758 2.67857,-2.32142 0.89146,-4.28599 3.21289,-5.35742 2.32143,-1.07143 7.14342,0.71457 9.46485,-0.89258 2.32143,-1.60714 2.67969,-5.71484 2.67969,-5.71484 0,0 5.17773,1.07115 7.67773,-0.35742 2.5,-1.42858 2.32088,-7.85687 4.28516,-8.39258 1.96429,-0.53572 3.75,-0.35742 3.75,-0.35742 l -1.07032,7.32226 c 0,0 9.10575,-4.28655 10.71289,-3.57226 1.60715,0.71428 0,4.82226 0,4.82226 0,0 4.10715,-0.53571 5,1.25 0.89286,1.78572 0.89425,3.57087 -0.71289,4.28516 -1.60715,0.71428 -5.89257,-0.53516 -5.89257,-0.53516 l -0.53711,10 c 0,0 3.03543,2.85604 5.89257,3.57032 2.85715,0.71429 10.00112,-1.78571 11.42969,0 1.42858,1.78572 2.5,4.64286 1.25,6.25 -1.25,1.60715 -2.67969,1.78683 -2.67969,2.67968 0,0.89286 -1.07115,2.85631 5.35743,2.67774 6.42857,-0.17858 7.50028,-1.42774 9.10742,-5.17774 1.60714,-3.75 -0.71485,-2.67857 0.53515,-5 1.25,-2.32142 4.2874,-10.89341 5.89454,-13.21484 1.60714,-2.32143 0.53459,-3.57087 2.32031,-5.53516 1.78571,-1.96428 8.75,-3.92968 8.75,-3.92968 0,0 -0.53489,-2.5 -3.92774,-3.75 -3.39286,-1.25 -10.35826,-4.99861 -13.92968,-4.46289 -3.57143,0.53571 -5.00028,2.14146 -7.85743,1.96289 -2.85714,-0.17857 -8.92745,-10.35631 -13.57031,-10.17774 -4.64285,0.17857 -6.6077,0.71401 -8.21484,0.89258 -1.60714,0.17857 -9.10715,-4.28656 -12.5,-4.82227 -3.39286,-0.53571 -6.07031,-5.53515 -6.07031,-5.53515 L 323.92773,371 c 0,0 4.2874,-0.17801 5.89454,-0.53516 1.60714,-0.35714 5.17689,-6.964 7.85546,-8.39257 2.67857,-1.42857 7.50168,-6.25168 5.89454,-8.39454 -1.60714,-2.14286 -6.78684,-0.53403 -6.42969,-5.35546 0.35714,-4.82143 3.57226,-2.85827 3.57226,-6.42969 0,-3.57143 -0.53655,-5 1.42774,-7.5 1.96428,-2.5 3.57226,-3.39313 1.07226,-6.60742 -2.5,-3.21428 -9.10742,-14.46373 -9.10742,-16.78516 0,-2.32143 -1.25083,-2.85686 -2.32226,-4.64258 -1.07142,-1.78571 -2.14202,-7.67857 -0.17774,-10 1.96429,-2.32143 12.14258,-4.28683 14.64258,-3.92969 2.5,0.35714 5.17801,5.3577 6.78516,5.71485 1.60714,0.35714 16.42997,-8.92858 18.03711,-11.25 1.60714,-2.32143 0.53571,-5.00056 2.5,-6.96485 1.96429,-1.96429 8.74944,-3.92717 9.28515,-6.96289 0.53572,-3.03571 0.35771,-13.75084 -1.78515,-14.82226 -2.14286,-1.07143 -9.28655,-3.92746 -12.32227,-3.57031 -3.03571,0.35714 -7.32088,6.42829 -10.53516,5.89257 -3.21429,-0.53571 -3.03711,-1.6077 -4.28711,-3.21484 -1.25,-1.60714 -0.89257,-3.92885 -2.14257,-5.35742 -1.25,-1.42858 -3.21289,-3.92774 -3.21289,-3.92774 0,0 2.67857,-19.82253 1.25,-22.67968 -1.42857,-2.85714 -13.75,-24.10743 -13.75,-24.10743 l -12.5,-1.25 c 0,0 -3.39286,5.71485 -6.25,8.21485 -2.85714,2.5 -7.32227,5 -7.32227,5 0,0 4.46484,3.03515 4.46484,5.53515 0,2.5 -0.89396,5.53739 -5.17968,2.14454 -4.28571,-3.39286 -5.35743,-7.67969 -5.35743,-7.67969 0,0 -10.17828,-1.60687 -12.14257,-7.14258 -1.96428,-5.53572 -0.89258,-13.21484 -0.89258,-13.21484 0,0 -2.23187,-0.31223 -4.95508,-0.26758 z m 61.56445,146.82617 c -0.059,0.002 -0.11855,0.017 -0.17968,0.0488 -0.48904,0.25495 0.0583,8.94458 0.35546,9.10742 0.29716,0.16284 3.61746,1.24971 5.53711,-0.35742 -0.17857,-1.42858 -4.31447,-4.91573 -4.55468,-5.17774 -0.24023,-0.26201 0.25268,-2.70596 -0.0879,-2.85742 -0.298,-0.13253 -0.65758,-0.77587 -1.07032,-0.76367 z" />
  </g>
  <g
     inkscape:groupmode="layer"
     id="layer11"
     inkscape:label="Utrecht"
     style="display:inline"
     transform="translate(-17.811525,-7.0815875)">
    <path
       style="fill:#c0c0c0;fill-opacity:1;stroke:#000000;stroke-width:1px;stroke-linecap:butt;stroke-linejoin:miter;stroke-opacity:1"
       d="m 331.90625,393.125 c -0.69196,0.0223 -1.64285,0.10714 -2.625,0.375 -1.96428,0.53571 -1.78125,6.97767 -4.28125,8.40625 -2.5,1.42857 -7.6875,0.34375 -7.6875,0.34375 0,0 -0.33482,4.11161 -2.65625,5.71875 -2.32143,1.60715 -7.14732,-0.19643 -9.46875,0.875 -2.32143,1.07143 -0.54018,3.05358 -3.21875,5.375 -2.60007,2.25339 -7.04914,3.8741 -7.3125,3.96875 1.91172,1.96001 -2.86122,4.26115 -1.4375,6.21875 1.42857,1.96428 6.25,1.9375 6.25,1.9375 0,0 -1.07143,0.72768 1.25,3.40625 2.32142,2.67857 9.80803,5.88393 10.34375,7.3125 0.53571,1.42857 -2.14286,6.09375 -3.75,6.09375 -1.60714,0 -6.60267,-1.09375 -9.28125,0.15625 -2.67857,1.25 -4.28125,3.77232 -3.03125,6.09375 1.25,2.32142 3.75446,1.24108 4.46875,3.5625 0.71428,2.32143 -1.4375,4.46875 -0.1875,8.21875 1.25,3.75 2.6875,6.0625 2.6875,6.0625 0,0 4.46428,-0.90625 5,0.34375 0.53571,1.25 -0.88839,3.77232 -1.78125,4.84375 -0.89286,1.07143 -3.0491,-0.0179 -4.65625,0.875 -1.60714,0.89285 -4.46428,6.08036 -3.75,7.6875 0.71429,1.60714 8.76339,0.34821 9.65625,1.0625 0.89286,0.71428 0.5134,2.50447 -1.09375,3.21875 -1.60714,0.71429 -5.33036,-0.17857 -5.6875,1.25 -0.35715,1.42857 3.00893,5.37054 6.9375,9.65625 3.92857,4.28571 4.65625,8.5625 4.65625,8.5625 h 5.1875 l 10.53125,-5.53125 4.28125,-3.9375 9.8125,-1.59375 11.4375,-7.34375 6.0625,4.65625 5,5.5 c -0.002,-0.0694 0,-0.3125 0,-0.3125 l 5.90625,3.03125 7.84375,-4.28125 7.5,5.34375 8.9375,1.25 3.03125,-2.6875 22.5,-6.40625 19.65625,10.71875 11.78125,0.6875 c 0,0 1.58929,-6.42857 0.875,-8.75 -0.71428,-2.32143 -4.45089,-2.67411 -6.59375,-5.53125 -2.14286,-2.85715 0.54911,-2.31696 -0.34375,-5.53125 -0.89286,-3.21428 -2.69196,-1.79018 -3.40625,-4.46875 -0.71428,-2.67857 1.07143,-3.55357 0,-5.875 -1.07143,-2.32143 -2.85714,-1.4375 -3.75,-3.9375 -0.89286,-2.5 0.35267,-11.97768 -1.96875,-13.40625 -2.32143,-1.42857 -2.14286,2.51339 -6.25,5.90625 -4.10715,3.39286 -7.84375,2.67411 -9.09375,0.53125 -1.25,-2.14285 -0.36161,-1.59821 3.03125,-8.5625 3.39285,-6.96428 1.61607,-11.4375 0.1875,-13.9375 -1.42857,-2.5 -12.34375,-4.65178 -12.34375,-6.4375 0,-1.78571 2.32143,-4.08036 2.5,-5.6875 0.17857,-1.60715 -2.47768,-2.69197 -3.90625,-5.90625 -1.37731,-3.09895 -2.3955,-9.21209 -2.46875,-9.65625 -3.68002,-2.45633 -7.7496,-5.12476 -9.34375,-6.0625 -3.03571,-1.78571 -5.53125,-1.0625 -8.03125,-3.5625 -2.5,-2.5 -1.5,-3.5 -1.5,-3.5 l -0.375,-0.3125 c -1.17163,0.34437 -6.67953,2.05061 -8.28125,3.8125 -1.78572,1.96429 -0.73661,3.20982 -2.34375,5.53125 -1.60714,2.32143 -4.625,10.89733 -5.875,13.21875 -1.25,2.32143 1.07589,1.25 -0.53125,5 -1.60714,3.75 -2.69643,5.00892 -9.125,5.1875 -6.42858,0.17857 -5.34375,-1.79464 -5.34375,-2.6875 0,-0.89285 1.40625,-1.08035 2.65625,-2.6875 1.25,-1.60714 0.17858,-4.46428 -1.25,-6.25 -1.19164,-1.48955 -6.3166,-0.0276 -9.65625,0.0937 -0.0866,4.75838 -0.33624,12.05823 -1.1875,13.25 -1.26269,1.76777 -8.4586,2.01523 -9.46875,0.5 -1.01015,-1.51523 0.24746,-9.45939 0.5,-13.5 0.22608,-3.61744 2.09398,-3.96189 2.5,-4 l 0.53125,-9.875 c -0.97558,-0.42218 -1.97039,-0.87898 -2.28125,-1.25 -0.69196,-0.82589 -0.41071,-2.9241 0.4375,-3.28125 0.80435,-0.33865 3.20829,-0.51415 3.46875,-0.53125 0.0335,-0.0862 1.58993,-4.07462 0,-4.78125 -1.60714,-0.71429 -10.71875,3.5625 -10.71875,3.5625 l 1.0625,-7.3125 c 0,0 -0.43304,-0.0537 -1.125,-0.0312 z"
       id="path4926"
       inkscape:connector-curvature="0" />
  </g>
  <g
     inkscape:groupmode="layer"
     id="layer16"
     inkscape:label="Flevoland"
     style="display:inline"
     transform="translate(-17.811525,-7.0815875)">
    <path
       id="path4977"
       style="fill:#c0c0c0;fill-opacity:1;stroke:#000000;stroke-width:1px;stroke-linecap:butt;stroke-linejoin:miter;stroke-opacity:1"
       d="m 460.9375,230.25 c -0.66184,0.19685 -2.90573,0.85195 -5.21875,1.46875 -2.67857,0.71429 -3.74107,-0.71428 -4.8125,0 -1.07143,0.71429 -1.99107,5.71875 -5.5625,11.96875 -3.57142,6.25 -8.72768,10 -8.90625,11.25 -0.17857,1.25 -0.009,6.59375 1.0625,15.34375 1.07143,8.75 -1.61607,12.49553 -0.1875,14.28125 1.42857,1.78571 3.76339,1.08036 8.40625,6.4375 4.64285,5.35714 3.19643,8.03571 4.625,8.75 1.42858,0.71428 18.41964,-0.19196 25.5625,-0.90625 7.14286,-0.71428 33.75,-6.95982 33.75,-10.53125 0,-3.57143 -3.77678,-0.5134 -6.8125,-3.90625 -3.03571,-3.39286 1.43304,-5.01339 1.96875,-7.15625 l 1.84375,-7.375 c -5.19241,-6.39672 -16.98469,-18.3188 -18.75,-19.59375 -2.27284,-1.64149 -8.57979,-1.01856 -9.96875,-2.28125 -1.38896,-1.26269 -2.40625,-6.6875 -2.40625,-6.6875 0,0 0.14375,-0.23885 0.40625,-0.5625 -0.52658,-1.0909 -2.93609,-5.70242 -7.84375,-8.15625 -2.2418,-1.1209 -4.76977,-1.82328 -7.15625,-2.34375 z M 446.25,300.28516 c -1.42857,-0.17857 -15.17773,7.85715 -17.67773,10 -2.5,2.14286 -1.78739,4.46512 -3.39454,6.07226 -1.60714,1.60714 -4.28543,-0.53515 -9.64257,1.96485 -5.35715,2.5 -9.46457,16.96344 -10.35743,18.92773 -0.89285,1.96428 -5,-8.4e-4 -5,1.42773 0,1.42857 3.0374,1.78627 3.39454,3.21485 0.35714,1.42857 -1.60882,4.46484 -3.39454,4.46484 -1.78571,0 -5.53515,-1.96484 -5.53515,-1.96484 0,0 -3.21317,6.60714 -7.32031,8.75 -4.10714,2.14285 -7.5,-0.53516 -7.5,-0.53516 0,0 -24.28655,12.14286 -24.82227,13.75 -0.53571,1.60714 2.8e-4,12.49917 0.35742,13.92774 0.35715,1.42857 2.5,4.64257 2.5,4.64257 l 3.03516,-1.78515 c 3.03571,-1.78572 3.2154,-0.89202 15.17969,1.07226 11.96429,1.96429 29.64257,23.21289 30.89257,23.21289 1.25,0 19.286,-4.64118 20.35743,-5.35546 1.07143,-0.71429 6.78542,-15.00056 7.14257,-16.96485 0.35714,-1.96428 -3.21484,-6.42969 -3.21484,-6.42969 0,0 3.39314,-3.57059 5.35742,-3.92773 1.96429,-0.35714 4.46401,1.07059 8.39258,-1.07227 3.92857,-2.14286 5.17801,-7.85685 6.78516,-9.64257 1.60714,-1.78571 2.67968,-1.42886 10.17968,-4.10743 7.5,-2.67857 14.10659,-7.67828 20.53516,-17.14257 6.42857,-9.46428 2.85769,-27.14174 -3.03516,-31.07032 -1.78572,-1.07142 -7.50111,-0.35854 -10.17968,-0.53711 -2.67858,-0.17857 -4.82171,-3.21345 -7.85743,-3.92773 -3.03571,-0.71429 -4.46344,-0.53488 -10.17773,-2.67773 -5.71428,-2.14286 -3.57143,-4.10854 -5,-4.28711 z" />
  </g>
  <g
     inkscape:groupmode="layer"
     id="layer12"
     inkscape:label="Overijssel"
     style="display:inline"
     transform="translate(-17.811525,-7.0815875)">
    <path
       style="fill:#c0c0c0;fill-opacity:1;stroke:#000000;stroke-width:1px;stroke-linecap:butt;stroke-linejoin:miter;stroke-opacity:1"
       d="m 534.375,226.9375 -6.8125,3.65625 c 0,0 -0.8961,-0.5 -1.90625,-0.5 -1.01015,0 -1.89102,3.5211 -3.40625,4.53125 -1.51523,1.01015 -7.58106,3.78759 -8.84375,3.15625 -1.26269,-0.63135 -2.91085,-6.68623 -5.5625,-6.8125 -2.65165,-0.12627 -5.171,3.3999 -6.8125,4.03125 -1.64149,0.63134 -4.54806,5.55997 -9.09375,5.8125 -4.54569,0.25254 -7.30568,-2.53252 -11.09375,-2.40625 -3.78807,0.12627 -5.3125,2.90625 -5.3125,2.90625 0,0 1.01729,5.42481 2.40625,6.6875 1.38896,1.26269 7.69591,0.63976 9.96875,2.28125 2.27284,1.6415 21.21875,20.97589 21.21875,23.375 0,2.39911 -3.67989,2.25713 -4.4375,4.65625 -0.75762,2.39911 0.63975,4.17862 2.28125,5.0625 1.6415,0.88388 7.20733,0.63467 8.34375,2.78125 1.13642,2.14657 1.75301,4.03839 -1.65625,6.4375 -3.40926,2.39911 -26.89102,8.94972 -28.40625,10.84375 -1.51523,1.89404 -0.61533,1.39054 1.53125,6.0625 2.14657,4.67195 2.625,19.15625 2.625,19.15625 l 0.15625,0.5625 4,0.1875 11.09375,14.625 2.5,-2.6875 2.84375,3.21875 10.71875,-10.34375 8.03125,4.625 10,15.90625 c 0,0 -2.3259,1.07143 -3.21875,1.25 -0.89286,0.17857 -2.68304,3.39286 -0.71875,6.25 1.96429,2.85714 8.03125,3.75 8.03125,3.75 l -6.9375,9.28125 c 0,0 -5.73661,3.39732 -7.34375,4.46875 -1.60714,1.07143 0.89286,11.0625 2.5,12.3125 1.60714,1.25 8.75,1.25 8.75,1.25 l 5.90625,15.1875 6.25,5.34375 c 0,0 2.84821,-1.77678 4.8125,-1.0625 1.96428,0.71429 1.4375,2.5 1.4375,2.5 0,0 7.13839,-0.52232 11.78125,-0.34375 4.64286,0.17857 9.28125,3.03125 9.28125,3.03125 0,0 0.53125,-5.17857 4.28125,-7.5 3.75,-2.32142 11.08036,-1.98214 13.9375,0.875 2.85714,2.85714 2.31696,4.84821 3.03125,6.8125 0.71428,1.96428 7.69643,10.33482 9.125,11.40625 1.42857,1.07143 5.6875,-1.96875 5.6875,-1.96875 0,0 2.16964,1.25893 4.3125,1.4375 2.14286,0.17857 8.73661,-1.05358 10.34375,-0.875 1.60714,0.17857 1.79911,4.28125 3.40625,4.28125 1.60714,0 8.03125,-4.125 8.03125,-4.125 0,0 1.0625,1.24554 2.3125,3.03125 1.25,1.78572 0.16964,10.91964 1.0625,11.8125 0.89286,0.89285 1.42857,0.875 6.25,2.125 3.34203,0.86645 6.4016,1.10592 8.03125,1.1875 l 1.3125,-0.0312 c 0,0 15.05314,1.02412 19.09375,-1.375 4.04061,-2.39911 3.23984,-7.51222 4.25,-9.40625 1.01015,-1.89404 4.79473,-6.58487 6.5625,-7.46875 1.76776,-0.88388 5.06583,0.003 7.84375,-3.40625 2.77792,-3.40927 0.49826,-7.5671 3.78125,-10.21875 3.283,-2.65165 6.68956,-1.89482 9.59375,-3.03125 2.90419,-1.13642 4.65625,-2.15625 4.65625,-2.15625 0,0 -6.69003,-9.08946 -6.4375,-12.625 0.25254,-3.53553 2.02237,-13.01221 2.90625,-14.90625 0.88389,-1.89403 3.41133,-4.78664 2.90625,-10.46875 -0.50508,-5.68211 -1.01935,-9.47335 -5.3125,-12.125 -4.29315,-2.65165 -3.76221,-5.55489 -5.65625,-6.3125 -1.89403,-0.75762 -4.0671,-12.375 -6.71875,-12.375 -2.65165,0 -5.66593,11.37246 -7.8125,11.625 -2.14658,0.25254 -5.04425,-1.38722 -9.96875,-3.28125 -4.92449,-1.89404 -4.80314,-4.4375 -8.84375,-4.4375 -4.04061,0 -4.29045,1.78252 -9.59375,1.65625 -5.3033,-0.12627 -15.53125,-7.19289 -15.53125,-12.875 0,-5.68211 1.38515,-8.20479 0.375,-9.59375 -1.01015,-1.38896 -4.28125,-6.8125 -4.28125,-6.8125 0,0 5.17354,0.48017 6.5625,-0.65625 1.38896,-1.13642 -0.26776,-2.40245 1.5,-2.78125 1.76777,-0.37881 6.5625,0 6.5625,0 l -8.4375,-9.34375 -0.28125,-11.96875 -4.28125,-0.25 2.40625,-4.9375 -18.9375,-6.3125 c 0,0 -13.01475,2.51983 -14.65625,3.65625 -1.6415,1.13642 -2.14863,1.75841 -2.90625,4.03125 -0.75761,2.27285 -0.625,10.625 -0.625,10.625 l -6.3125,-3.53125 -5.0625,4.28125 -3.65625,-4.53125 -6.0625,4.78125 -3.78125,-5.9375 c 0,0 1.51269,-2.13848 0.25,-3.90625 -1.26269,-1.76777 -9.59375,-3.78125 -9.59375,-3.78125 L 573.25,283.5 c 0,0 -8.82598,0.25635 -10.59375,-0.375 -1.76777,-0.63134 -3.046,-3.40498 -4.6875,-3.53125 -1.64149,-0.12627 -10.4586,-0.27617 -11.46875,-0.78125 -1.01015,-0.50507 -10.34756,-18.04981 -9.96875,-19.3125 0.37881,-1.2627 13.24365,-9.9586 13.875,-10.96875 0.63134,-1.01016 0.63134,-4.80362 0,-5.6875 C 549.7749,241.95986 534.375,226.9375 534.375,226.9375 Z"
       id="path4933"
       inkscape:connector-curvature="0" />
  </g>
  <g
     inkscape:groupmode="layer"
     id="layer13"
     inkscape:label="Drenthe"
     style="display:inline"
     transform="translate(-17.811525,-7.0815875)">
    <path
       style="fill:#c0c0c0;fill-opacity:1;stroke:#000000;stroke-width:1px;stroke-linecap:butt;stroke-linejoin:miter;stroke-opacity:1"
       d="m 599.28125,113.40625 c -2.39911,0 -14.01729,12.75968 -15.40625,14.90625 -1.38896,2.14658 -7.34375,23.34375 -7.34375,23.34375 h -6.6875 c 0,0 -1.63642,2.0211 -0.5,3.03125 1.13642,1.01015 7.70606,1.66339 8.96875,4.0625 1.26269,2.39911 -1.14404,10.23302 0.75,15.03125 1.89403,4.79822 12.75,12.74317 12.75,16.53125 0,3.78807 -8.18528,16.52363 -14.625,17.28125 -6.43972,0.75761 -7.21875,-5.15625 -7.21875,-5.15625 0,0 -9.70606,-0.2665 -10.96875,1.375 -1.2627,1.64149 -1.26888,5.69543 -8.71875,11.125 -6.87311,5.00921 -14.6336,11.01726 -15.90625,12 0,0 15.3999,15.02236 16.03125,15.90625 0.63134,0.88388 0.63134,4.67734 0,5.6875 -0.63135,1.01015 -13.49619,9.70605 -13.875,10.96875 -0.37881,1.26269 8.9586,18.80743 9.96875,19.3125 1.01015,0.50508 9.82726,0.65498 11.46875,0.78125 1.6415,0.12627 2.91973,2.89991 4.6875,3.53125 1.76777,0.63135 10.59375,0.375 10.59375,0.375 l 1.65625,2.78125 c 0,0 8.33106,2.01348 9.59375,3.78125 1.26269,1.76777 -0.25,3.90625 -0.25,3.90625 l 3.78125,5.9375 6.0625,-4.78125 3.65625,4.53125 5.0625,-4.28125 6.3125,3.53125 c 0,0 -0.13261,-8.35215 0.625,-10.625 0.75762,-2.27284 1.26475,-2.89483 2.90625,-4.03125 1.6415,-1.13642 14.65625,-3.65625 14.65625,-3.65625 l 18.9375,6.3125 -2.40625,4.9375 4.28125,0.25 0.28125,-2.28125 c 0,0 12.24477,-5.44004 22.09375,-5.1875 9.84899,0.25254 14.39737,3.90625 15.28125,3.90625 0.88388,0 5.15323,-3.38007 8.5625,-2.875 3.40926,0.50508 9.46447,4.66514 13,3.78125 3.53553,-0.88388 3.4375,-1.15625 3.4375,-1.15625 0,0 -1.16133,-16.27855 -0.65625,-25.875 0.50508,-9.59645 3.03125,-37.375 3.03125,-37.375 0,0 -4.7922,0.64023 -6.8125,-0.875 -2.02031,-1.51523 1.38896,-5.04601 0,-6.6875 -1.38896,-1.6415 -6.4375,-2.28125 -6.4375,-2.28125 0,0 5.31631,-8.47716 4.9375,-10.75 -0.37881,-2.27284 -6.3171,-2.51047 -8.96875,-7.6875 -2.65165,-5.17703 -1.65196,-5.30187 -5.1875,-9.46875 -3.53553,-4.16688 -15.66593,-16.02696 -17.8125,-19.5625 -2.14658,-3.53553 -22.96701,-24.89102 -26.25,-26.40625 -3.283,-1.51523 -3.90625,-1.125 -3.90625,-1.125 0,0 -2.29601,3.03505 -3.9375,2.65625 -1.6415,-0.37881 -2.75,-2.40625 -2.75,-2.40625 0,0 -3.40831,4.03505 -6.3125,3.65625 -2.90418,-0.37881 -4.57471,-2.15451 -6.46875,-5.4375 -1.89403,-3.283 -0.7584,-6.16847 -3.03125,-8.0625 -2.27284,-1.89404 -3.78204,0.99667 -6.8125,-1.78125 -3.03045,-2.77792 -2.50254,-3.0211 -2.25,-4.03125 0.25254,-1.01015 1.50127,-2.27236 1.375,-3.15625 -0.12627,-0.88388 -10.85089,-8.21875 -13.25,-8.21875 z"
       id="path4936"
       inkscape:connector-curvature="0" />
  </g>
  <g
     inkscape:groupmode="layer"
     id="layer14"
     inkscape:label="Groningen"
     style="display:inline"
     transform="translate(-17.811525,-7.0815875)">
    <path
       id="path4947"
       style="fill:#c0c0c0;fill-opacity:1;stroke:#000000;stroke-width:1px;stroke-linecap:butt;stroke-linejoin:miter;stroke-opacity:1"
       d="m 616.38477,7.5839844 c -2.23215,0.022321 -4.59934,0.2014509 -5.49219,0.5585937 -3.03572,2.3214289 0.71456,4.4642859 4.10742,4.9999999 3.39286,0.535715 6.78656,-4.6420199 6.07227,-5.1777342 -0.35715,-0.2678572 -2.45536,-0.4031809 -4.6875,-0.3808594 z m -20.3125,0.7382812 c -2.85714,0 -8.57172,0.1774557 -9.10743,3.5703124 -0.35715,4.464286 13.92886,1.25 15.35743,0 1.42857,-1.25 -3.39286,-3.5703124 -6.25,-3.5703124 z M 642.375,34.375 c -0.95121,0.176086 -1.11167,1.558058 -2.4375,2 -1.51523,0.505076 -2.9256,-0.48271 -7.21875,0.90625 -4.29315,1.38896 -6.92687,4.673541 -11.09375,6.0625 -4.16688,1.38896 -0.24555,-0.761898 -13.125,3.53125 -12.87944,4.293149 -15.03918,1.498731 -20.46875,1.625 -5.42957,0.126269 -19.18322,10.125 -22.71875,10.125 -3.53553,0 -6.18576,-4.044733 -9.46875,-5.8125 -3.283,-1.767767 -10.49619,-0.0076 -10.875,0.75 -0.37881,0.757614 8.84375,7.5625 8.84375,7.5625 0,0 -7.57852,-0.607709 -9.09375,0.78125 -1.51523,1.38896 1.51602,5.163387 3.03125,7.5625 1.51523,2.399112 0.90196,0.243655 4.4375,0.875 3.53553,0.631345 3.4492,3.266318 3.90625,3.53125 0.45705,0.264932 3.7711,-0.353902 4.78125,0.65625 1.01015,1.010153 2.15625,3.766813 2.15625,8.3125 0,4.545686 -3.92735,5.193369 -4.9375,7.71875 -1.01015,2.525381 0.1415,4.657043 -1.5,7.6875 -1.64149,3.03046 -4.92989,3.6756 -5.6875,7.96875 -0.75762,4.29314 3.40625,2.50539 3.40625,8.1875 0,5.6821 -10.47002,9.61977 -10.34375,19.46875 0.12627,9.84899 8.70177,10.98477 13.5,12.5 4.79822,1.51523 4.0422,-1.65625 6.0625,-1.65625 2.02031,0 1.14102,1.50967 2.65625,3.65625 1.38208,1.95795 3.20672,3.25055 3.53125,3.46875 0.0472,-0.0639 0.125,-0.1875 0.125,-0.1875 h 6.6875 c 0,0 5.95479,-21.19717 7.34375,-23.34375 1.38896,-2.14657 13.00714,-14.90625 15.40625,-14.90625 2.39911,0 13.12373,7.33487 13.25,8.21875 0.12627,0.88389 -1.12246,2.1461 -1.375,3.15625 -0.25254,1.01015 -0.78045,1.25333 2.25,4.03125 3.03046,2.77792 4.53966,-0.11279 6.8125,1.78125 2.27285,1.89403 1.13722,4.7795 3.03125,8.0625 1.89404,3.28299 3.56457,5.05869 6.46875,5.4375 2.80792,0.36624 6.03568,-3.31283 6.25,-3.5625 0.0425,-1.60774 0.12449,-2.93595 0.25,-3.3125 0.44194,-1.32582 1.81456,-3.53125 4.71875,-3.53125 2.86055,0 1.93509,6.27799 1.90625,6.46875 0.26714,-0.0511 1.16116,-0.053 3.78125,1.15625 3.28299,1.51523 24.10342,22.87072 26.25,26.40625 2.14657,3.53554 14.27697,15.39562 17.8125,19.5625 3.53554,4.16688 2.53585,4.29172 5.1875,9.46875 2.65165,5.17703 8.58994,5.41466 8.96875,7.6875 0.37881,2.27284 -4.9375,10.75 -4.9375,10.75 0,0 5.04854,0.63975 6.4375,2.28125 1.38896,1.64149 -2.02031,5.17227 0,6.6875 2.0203,1.51523 6.8125,0.875 6.8125,0.875 0,0 -0.0303,0.39632 -0.0312,0.40625 0.50322,-1.73382 2.39063,-8.03126 3.59375,-10 1.38896,-2.27284 7.80567,-9.73509 11.59375,-17.4375 3.78807,-7.70241 2.01729,-13.00158 3.40625,-19.0625 1.38896,-6.06092 3.8125,-5.16592 3.8125,-7.3125 0,-2.14657 -1.14229,-2.02316 -2.53125,-5.9375 -1.38896,-3.91434 -0.52744,-4.43607 -0.90625,-13.90625 -0.37881,-9.47018 -5.53125,-12.34581 -5.53125,-15.25 0,-2.90419 2.39736,-5.19591 3.28125,-7.46875 0.88388,-2.27285 -0.51142,-1.37579 0.625,-4.40625 1.13642,-3.03046 2.77998,-2.79981 2.90625,-4.0625 0.12627,-1.26269 -1.40625,-1.99238 -1.40625,-2.75 0,-0.75761 2.15625,-2.796 2.15625,-4.4375 0,-1.64149 -3.28125,-8.96875 -3.28125,-8.96875 0,0 -2.40958,0.38389 -5.1875,-0.5 -2.77792,-0.88388 -2.65069,-1.51856 -6.3125,-2.78125 -3.6618,-1.262687 -3.51808,1.02792 -7.9375,-1.75 -4.41942,-2.77792 -3.17354,-5.180678 -4.5625,-8.96875 -1.38896,-3.788072 2.54141,-8.083597 1.53125,-9.09375 -1.01015,-1.010153 -1.65958,0.887213 -4.4375,2.78125 -2.77792,1.894036 -7.17719,0.486994 -17.53125,-4.4375 -10.35407,-4.924494 -13.15324,-8.591051 -16.5625,-18.1875 -3.40927,-9.596449 -2.39609,-11.85168 -3.40625,-17.28125 -1.01015,-5.42957 -5.17227,-7.717481 -6.6875,-7.84375 -1.51523,-0.126269 -2.2795,2.277443 -5.5625,2.65625 -3.28299,0.378807 -9.95479,-4.403712 -11.34375,-4.65625 -0.17362,-0.03157 -0.33286,-0.02515 -0.46875,0 z" />
  </g>
  <g
     inkscape:groupmode="layer"
     id="layer15"
     inkscape:label="Friesland"
     style="display:inline"
     transform="translate(-17.811525,-7.0815875)">
    <path
       id="path4954"
       style="fill:#c0c0c0;fill-opacity:1;stroke:#000000;stroke-width:1px;stroke-linecap:butt;stroke-linejoin:miter;stroke-opacity:1"
       d="m 570.20703,20.34375 c -0.33565,-0.01638 -0.67272,-0.01403 -0.98633,0.0059 -2.77235,0.175803 -12.87953,5.051168 -22.72851,4.041016 -9.84899,-1.010153 -14.39513,1.010567 -16.66797,6.566406 -2.27284,5.555839 1.76817,10.353516 4.04101,10.353516 2.27284,0 1.51486,-4.040439 6.06055,-6.818359 4.54568,-2.77792 8.33479,-0.505086 13.89063,-2.525391 5.55584,-2.020305 6.66468,-4.538487 9.5957,-5.808594 1.89404,-0.820754 3.33516,-0.326216 4.89258,-0.882812 2.57041,-0.91862 5.08309,-1.768857 4.19922,-4.167969 -0.29695,-0.488768 -1.28993,-0.71452 -2.29688,-0.763672 z m -73.12891,12.402344 c -3.01862,-0.0296 -6.14317,0.135767 -8.41601,0.230468 -6.06091,0.252539 -11.36486,3.97e-4 -17.42578,1.515626 -6.06091,1.515228 -6.06018,3.788477 -12.1211,4.041015 -6.06091,0.252538 -15.15372,-2.52539 -17.93164,-2.525391 -2.77791,0 -5.80721,5.55548 -3.02929,8.585938 2.77792,3.030457 4.03928,4.79746 9.84765,4.544922 5.80838,-0.252538 10.85978,-7.828125 14.90039,-7.828125 4.04061,0 2.77814,2.52539 5.8086,2.525391 3.03046,0 16.41448,-4.292969 22.98047,-4.292969 6.56599,0 15.15234,-0.253529 15.15234,-3.789063 0,-2.367545 -4.73459,-2.958488 -9.76563,-3.007812 z m -72.21679,8.433594 c -1.88418,-0.08632 -4.60536,0.60535 -7.91992,1.394531 -5.3033,1.262691 -14.39534,6.3125 -19.95118,6.3125 -5.55584,0 -23.48712,6.313481 -26.51757,7.576172 -3.03046,1.262691 -14.39356,8.839466 -15.65625,12.375 -1.26269,3.535534 0.75645,9.849411 3.02929,9.091797 2.27284,-0.757615 1.01173,-1.767786 3.53711,-5.050782 2.52538,-3.282996 2.27249,-1.516615 8.58594,-5.304687 6.31345,-3.788072 8.58674,-2.272267 11.61719,-2.777344 3.03046,-0.505076 2.52521,-1.009964 4.29297,-1.767578 1.76777,-0.757615 3.0293,1.263276 5.55468,-0.251953 2.52538,-1.515228 1.76897,-3.283797 7.07227,-5.556641 5.3033,-2.272843 10.60567,0.504095 13.88867,-1.263672 3.28299,-1.767767 1e-5,-2.524815 2.52539,-5.302734 2.52538,-2.77792 14.64784,-2.778146 12.375,-8.333985 -0.47351,-0.757614 -1.30309,-1.088835 -2.43359,-1.140624 z M 529.625,54.0625 c -5.61783,0.07537 -22.37955,2.367346 -25.8125,3.90625 -3.6618,1.641498 -3.5257,2.042194 -7.1875,4.0625 -3.66181,2.020305 -5.81075,0.858502 -9.09375,2.5 -3.28299,1.641498 -9.34835,4.168464 -12,6.0625 -2.65165,1.894036 -13.39816,4.165925 -17.3125,6.3125 -3.91434,2.146574 -18.79219,8.081059 -20.8125,9.34375 -2.0203,1.26269 -7.45986,9.475888 -8.34375,11.875 -0.88388,2.39911 -5.30822,5.19591 -8.84375,7.46875 -3.53553,2.27284 -7.56075,4.92052 -10.84375,9.71875 -3.283,4.79822 -4.29854,12.87452 -5.6875,16.03125 -1.38896,3.15673 -0.51094,9.717 -2.53125,13 -2.0203,3.28299 -3.79981,2.76935 -5.0625,7.0625 -1.26269,4.29315 4.56377,10.98302 4.4375,15.78125 -0.12626,4.79822 -1.03125,4.81837 -1.03125,7.34375 0,2.52538 1.14609,6.68956 2.15625,9.59375 1.01015,2.90419 1.78125,10.72668 1.78125,16.15625 0,5.42957 -1.51856,8.70479 -2.78125,10.09375 -1.26269,1.38896 -5.94257,3.55441 -5.4375,7.46875 0.50508,3.91434 10.87706,9.33486 13.78125,10.21875 2.90419,0.88388 6.03966,-2.66005 8.3125,-2.28125 2.27284,0.37881 9.60343,6.55997 11.75,6.8125 2.14658,0.25254 2.89562,-0.87119 7.0625,-1.25 4.16688,-0.3788 0.88468,-2.26602 3.03125,-3.78125 2.14657,-1.51523 1.40324,0.001 4.8125,-0.125 3.40927,-0.12627 2.63594,-2.15625 4.65625,-2.15625 2.02031,0 2.16592,2.01983 4.3125,3.15625 2.14657,1.13643 9.60041,1.37833 15.15625,4.15625 4.90766,2.45383 7.31717,7.06535 7.84375,8.15625 0.66238,-0.81668 2.19332,-2.25332 4.90625,-2.34375 3.78807,-0.12627 6.54806,2.65879 11.09375,2.40625 4.54569,-0.25253 7.45226,-5.18116 9.09375,-5.8125 1.6415,-0.63135 4.16085,-4.15752 6.8125,-4.03125 2.65165,0.12627 4.29981,6.18115 5.5625,6.8125 1.26269,0.63134 7.32852,-2.1461 8.84375,-3.15625 1.51523,-1.01015 2.3961,-4.53125 3.40625,-4.53125 1.01015,0 1.90625,0.5 1.90625,0.5 l 6.8125,-3.65625 c 1.27265,-0.98274 9.03314,-6.99079 15.90625,-12 7.44987,-5.42957 7.45605,-9.48351 8.71875,-11.125 1.26269,-1.6415 10.96875,-1.375 10.96875,-1.375 0,0 0.77903,5.91386 7.21875,5.15625 6.43972,-0.75762 14.625,-13.49318 14.625,-17.28125 0,-3.78808 -10.85597,-11.73303 -12.75,-16.53125 -1.89404,-4.79823 0.51269,-12.63214 -0.75,-15.03125 -1.26269,-2.39911 -7.83233,-3.05235 -8.96875,-4.0625 -0.98592,-0.87637 0.0661,-2.42546 0.375,-2.84375 -0.32453,-0.2182 -2.14917,-1.5108 -3.53125,-3.46875 -1.51523,-2.14658 -0.63594,-3.65625 -2.65625,-3.65625 -2.0203,0 -1.26428,3.17148 -6.0625,1.65625 -4.79823,-1.51523 -13.37373,-2.65101 -13.5,-12.5 -0.12627,-9.84898 10.34375,-13.78665 10.34375,-19.46875 0,-5.68211 -4.16387,-3.89436 -3.40625,-8.1875 0.75761,-4.29315 4.04601,-4.93829 5.6875,-7.96875 1.6415,-3.030457 0.48985,-5.162119 1.5,-7.6875 1.01015,-2.525381 4.9375,-3.173064 4.9375,-7.71875 0,-4.545687 -1.1461,-7.302347 -2.15625,-8.3125 -0.88388,-0.883883 -3.54567,-0.520904 -4.5,-0.59375 -0.44575,1.226812 -1.07025,2.21875 -1.9375,2.21875 -2.27284,0 -1.76935,-0.513483 -6.0625,-2.28125 -4.29314,-1.767767 -6.29854,2.282519 -7.6875,2.15625 -1.38896,-0.126269 -0.38976,-1.520621 -2.03125,-5.6875 -1.6415,-4.166879 0.50127,-6.92814 0.375,-10.96875 -0.12627,-4.04061 -4.14436,-5.059962 -8.4375,-5.3125 -0.26832,-0.01578 -0.59423,-0.005 -0.96875,0 z M 357.55469,85.310547 c -2.48075,0.04143 -6.859,7.043583 -4.75977,8.148437 2.39911,1.26269 7.07255,-6.56475 5.6836,-7.701172 -0.25254,-0.315672 -0.56944,-0.453184 -0.92383,-0.447265 z m -15.23828,0.185547 c -1.87456,-0.03798 -4.97354,1.177574 -8.9668,4.302734 -5.80838,4.545686 -13.3842,7.954896 -18.6875,12.248052 -5.3033,4.29314 -9.5957,9.21728 -9.5957,11.11132 0,1.89403 6.31367,4.79737 8.33398,4.16602 2.0203,-0.63134 1.01027,-2.77658 5.42969,-7.32227 4.41942,-4.54569 6.18594,-3.28311 7.70117,-5.42968 1.51523,-2.14658 -2.02059,-4.54689 1.38867,-7.07227 3.40927,-2.525382 4.41993,0.504879 6.94531,-0.757812 2.52538,-1.26269 13.00682,-7.071204 9.21875,-10.480469 -0.31567,-0.473509 -0.9155,-0.748362 -1.76757,-0.765625 z m 37.83398,14.261718 c -1.25938,-0.0025 -5.81771,3.370398 -2.38477,5.382808 3.66181,2.14657 3.44022,-4.76772 2.5879,-5.335932 -0.0513,-0.03157 -0.11917,-0.04671 -0.20313,-0.04688 z m 220.38086,13.960938 c 0.46717,0.1841 1.00355,0.44845 1.59375,0.75 -0.58668,-0.29976 -1.12843,-0.57005 -1.59375,-0.75 z" />
    <circle
       style="color:#000000;overflow:visible;opacity:1;fill:#000000;stroke:none;stroke-width:5.50754;stroke-linecap:round;stroke-linejoin:round;stroke-miterlimit:100.1;-inkscape-stroke:none;stop-color:#000000"
       id="circle624"
       cx="629.27087"
       cy="119.06979"
       r="9.0246248" />
    <circle
       style="color:#000000;overflow:visible;opacity:1;fill:#000000;stroke:none;stroke-width:1.67228;stroke-linecap:round;stroke-linejoin:round;stroke-miterlimit:100.1;-inkscape-stroke:none;stop-color:#000000"
       id="circle628"
       cx="241.73427"
       cy="510.39398"
       r="2.740191" />
    <text
       xml:space="preserve"
       style="font-style:normal;font-variant:normal;font-weight:normal;font-stretch:normal;font-size:29.3333px;line-height:125%;font-family:Arimo;-inkscape-font-specification:Arimo;font-variant-ligatures:none;text-decoration-color:#000000;letter-spacing:0px;word-spacing:0px;fill:#000000;stroke:none;stroke-width:0.999999px;stroke-linecap:butt;stroke-linejoin:miter;stroke-opacity:1;-inkscape-stroke:none;stop-color:#000000"
       x="568.53918"
       y="106.97102"
       id="text684"><tspan
         sodipodi:role="line"
         id="tspan682"
         x="568.53918"
         y="106.97102">Groningen</tspan></text>
    <text
       xml:space="preserve"
       style="font-style:normal;font-variant:normal;font-weight:normal;font-stretch:normal;font-size:29.3333px;line-height:125%;font-family:Arimo;-inkscape-font-specification:Arimo;font-variant-ligatures:none;text-decoration-color:#000000;letter-spacing:0px;word-spacing:0px;fill:#000000;stroke:none;stroke-width:0.999999px;stroke-linecap:butt;stroke-linejoin:miter;stroke-opacity:1;-inkscape-stroke:none;stop-color:#000000"
       x="160.6199"
       y="372.57208"
       id="text688"><tspan
         sodipodi:role="line"
         id="tspan686"
         x="160.6199"
         y="372.57208">Amsterdam</tspan></text>
    <text
       xml:space="preserve"
       style="font-style:normal;font-variant:normal;font-weight:normal;font-stretch:normal;font-size:29.3333px;line-height:125%;font-family:Arimo;-inkscape-font-specification:Arimo;font-variant-ligatures:none;text-decoration-color:#000000;letter-spacing:0px;word-spacing:0px;fill:#000000;stroke:none;stroke-width:0.999999px;stroke-linecap:butt;stroke-linejoin:miter;stroke-opacity:1;-inkscape-stroke:none;stop-color:#000000"
       x="177.05896"
       y="537.64832"
       id="text742"><tspan
         sodipodi:role="line"
         id="tspan740"
         x="177.05896"
         y="537.64832">Rotterdam</tspan></text>
    <text
       xml:space="preserve"
       style="font-style:normal;font-variant:normal;font-weight:normal;font-stretch:normal;font-size:29.3333px;line-height:125%;font-family:Arimo;-inkscape-font-specification:Arimo;font-variant-ligatures:none;text-decoration-color:#000000;letter-spacing:0px;word-spacing:0px;fill:#000000;stroke:none;stroke-width:0.999999px;stroke-linecap:butt;stroke-linejoin:miter;stroke-opacity:1;-inkscape-stroke:none;stop-color:#000000"
       x="91.684868"
       y="470.09052"
       id="text746"><tspan
         sodipodi:role="line"
         id="tspan744"
         x="91.684868"
         y="470.09052">Voorburg</tspan></text>
    <text
       xml:space="preserve"
       style="font-style:normal;font-variant:normal;font-weight:normal;font-stretch:normal;font-size:29.3333px;line-height:125%;font-family:Arimo;-inkscape-font-specification:Arimo;font-variant-ligatures:none;text-decoration-color:#000000;letter-spacing:0px;word-spacing:0px;fill:#000000;stroke:none;stroke-width:0.999999px;stroke-linecap:butt;stroke-linejoin:miter;stroke-opacity:1;-inkscape-stroke:none;stop-color:#000000"
       x="242.44136"
       y="635.74323"
       id="text750"><tspan
         sodipodi:role="line"
         id="tspan748"
         x="242.44136"
         y="635.74323">St. Michielsgestel</tspan></text>
    <circle
       style="color:#000000;display:inline;overflow:visible;fill:#000000;stroke:none;stroke-width:5.50754;stroke-linecap:round;stroke-linejoin:round;stroke-miterlimit:100.1;-inkscape-stroke:none;stop-color:#000000"
       id="circle624-3"
       cx="319.89893"
       cy="378.8277"
       r="9.0246248" />
    <circle
       style="color:#000000;display:inline;overflow:visible;fill:#000000;stroke:none;stroke-width:5.50754;stroke-linecap:round;stroke-linejoin:round;stroke-miterlimit:100.1;-inkscape-stroke:none;stop-color:#000000"
       id="circle624-5"
       cx="215.87164"
       cy="484.05759"
       r="9.0246248" />
    <circle
       style="color:#000000;display:inline;overflow:visible;fill:#000000;stroke:none;stroke-width:5.50754;stroke-linecap:round;stroke-linejoin:round;stroke-miterlimit:100.1;-inkscape-stroke:none;stop-color:#000000"
       id="circle624-6"
       cx="245.33603"
       cy="511.71802"
       r="9.0246248" />
    <circle
       style="color:#000000;display:inline;overflow:visible;fill:#000000;stroke:none;stroke-width:5.50754;stroke-linecap:round;stroke-linejoin:round;stroke-miterlimit:100.1;-inkscape-stroke:none;stop-color:#000000"
       id="circle624-2"
       cx="385.44214"
       cy="606.72559"
       r="9.0246248" />
    <text
       xml:space="preserve"
       style="font-style:normal;font-variant:normal;font-weight:normal;font-stretch:normal;font-size:10.6667px;line-height:125%;font-family:'Linux Libertine Display O';-inkscape-font-specification:'Linux Libertine Display O';font-variant-ligatures:none;text-decoration-color:#000000;letter-spacing:0px;word-spacing:0px;fill:#000000;stroke:none;stroke-width:0.999999px;stroke-linecap:butt;stroke-linejoin:miter;stroke-opacity:1;-inkscape-stroke:none;stop-color:#000000"
       x="18.251623"
       y="852.71783"
       id="text973"><tspan
         sodipodi:role="line"
         id="tspan971"
         x="18.251623"
         y="852.71783">based on https://commons.wikimedia.org/wiki/File:Netherlands_provinces_map_blank.svg </tspan><tspan
         sodipodi:role="line"
         x="18.251623"
         y="866.05121"
         id="tspan975">CC-BY-SA © https://commons.wikimedia.org/wiki/User:Gust_Justice </tspan></text>
  </g>
  <g
     inkscape:groupmode="layer"
     id="layer2"
     inkscape:label="Rivers/Lakes"
     style="display:inline"
     sodipodi:insensitive="true"
     transform="translate(-17.811525,-7.0815875)" />
  <g
     inkscape:groupmode="layer"
     id="layer20"
     inkscape:label="Names of Rivers etc."
     style="display:inline"
     transform="translate(-17.811525,-7.0815875)" />
  <g
     inkscape:groupmode="layer"
     id="layer5"
     inkscape:label="Caribean"
     transform="translate(-17.811525,-7.0815875)" />
  <g
     inkscape:groupmode="layer"
     id="layer18"
     inkscape:label="Layer"
     style="display:inline"
     transform="translate(-17.811525,-7.0815875)" />
</svg>
