<?xml version="1.0" encoding="UTF-8" standalone="no"?>
<svg
   xmlns:dc="http://purl.org/dc/elements/1.1/"
   xmlns:cc="http://creativecommons.org/ns#"
   xmlns:rdf="http://www.w3.org/1999/02/22-rdf-syntax-ns#"
   xmlns:svg="http://www.w3.org/2000/svg"
   xmlns="http://www.w3.org/2000/svg"
   xmlns:sodipodi="http://sodipodi.sourceforge.net/DTD/sodipodi-0.dtd"
   xmlns:inkscape="http://www.inkscape.org/namespaces/inkscape"
   width="743"
   height="881"
   id="svg4304"
   version="1.1"
   inkscape:version="1.0.1 (3bc2e813f5, 2020-09-07)"
   style="display:inline"
   sodipodi:docname="NL.svg">
  <defs
     id="defs4306">
    <inkscape:perspective
       sodipodi:type="inkscape:persp3d"
       inkscape:vp_x="0 : 440.5 : 1"
       inkscape:vp_y="0 : 1000 : 0"
       inkscape:vp_z="743 : 440.5 : 1"
       inkscape:persp3d-origin="371.5 : 293.66667 : 1"
       id="perspective812" />
    <clipPath
       clipPathUnits="userSpaceOnUse"
       id="clipPath10964-7">
      <rect
         style="fill:none;stroke:none"
         id="rect10966-6"
         width="743"
         height="881"
         x="0"
         y="0" />
    </clipPath>
    <clipPath
       clipPathUnits="userSpaceOnUse"
       id="clipPath10968-5">
      <rect
         style="fill:none;stroke:none"
         id="rect10970-1"
         width="743"
         height="881"
         x="0"
         y="0" />
    </clipPath>
    <clipPath
       clipPathUnits="userSpaceOnUse"
       id="clipPath10832-1-6">
      <rect
         style="fill:none;stroke:none"
         id="rect10834-8-1"
         width="743"
         height="881"
         x="0"
         y="0" />
    </clipPath>
    <clipPath
       clipPathUnits="userSpaceOnUse"
       id="clipPath10972-9">
      <rect
         style="fill:none;stroke:none"
         id="rect10974-3"
         width="743"
         height="881"
         x="0"
         y="0" />
    </clipPath>
    <clipPath
       clipPathUnits="userSpaceOnUse"
       id="clipPath10800-7">
      <rect
         style="fill:none;stroke:none"
         id="rect10802-4"
         width="743"
         height="881"
         x="0"
         y="0" />
    </clipPath>
    <clipPath
       clipPathUnits="userSpaceOnUse"
       id="clipPath10804-4">
      <rect
         style="fill:none;stroke:none"
         id="rect10806-6"
         width="743"
         height="881"
         x="0"
         y="0" />
    </clipPath>
  </defs>
  <sodipodi:namedview
     id="base"
     pagecolor="#ffffff"
     bordercolor="#666666"
     borderopacity="1.0"
     inkscape:pageopacity="0.0"
     inkscape:pageshadow="2"
     inkscape:zoom="0.83151263"
     inkscape:cx="235.90909"
     inkscape:cy="368.99626"
     inkscape:document-units="px"
     inkscape:current-layer="layer5"
     showgrid="false"
     inkscape:window-width="1920"
     inkscape:window-height="1057"
     inkscape:window-x="-8"
     inkscape:window-y="-8"
     inkscape:window-maximized="1"
     showguides="true"
     inkscape:guide-bbox="true"
     inkscape:document-rotation="0" />
  <metadata
     id="metadata4309">
    <rdf:RDF>
      <cc:Work
         rdf:about="">
        <dc:format>image/svg+xml</dc:format>
        <dc:type
           rdf:resource="http://purl.org/dc/dcmitype/StillImage" />
        <dc:title />
      </cc:Work>
    </rdf:RDF>
  </metadata>
  <g
     inkscape:groupmode="layer"
     id="layer6"
     inkscape:label="Sea"
     style="display:inline" />
  <g
     inkscape:label="Other Countries"
     inkscape:groupmode="layer"
     id="layer1"
     style="display:inline" />
  <g
     inkscape:groupmode="layer"
     id="layer3"
     inkscape:label="Limburg"
     style="display:inline">
    <path
       style="fill:#c0c0c0;fill-opacity:1;stroke:#000000;stroke-width:1px;stroke-linecap:butt;stroke-linejoin:miter;stroke-opacity:1"
       d="m 506.84404,798.67257 2.52538,-6.81853 -7.82868,-12.37437 9.09137,-8.5863 6.56599,8.83884 c 0,0 4.04061,-5.05077 4.54569,-7.32361 0.50508,-2.27284 -0.25254,-3.78807 2.02031,-4.79822 2.27284,-1.01016 9.09137,-3.03046 10.85914,-5.55584 1.76776,-2.52538 0.75761,-3.03046 3.28299,-6.31346 2.52538,-3.28299 21.2132,-10.35406 21.71828,-11.86929 0.50508,-1.51523 -3.53553,-1.76777 -3.283,-4.29315 0.25254,-2.52538 5.55584,-2.52538 5.30331,-5.05076 -0.25254,-2.52538 -2.27285,-2.52538 -3.53554,-2.52538 -1.26269,0 -11.61675,6.56599 -14.39467,6.31345 -2.77792,-0.25254 -6.81853,-13.38452 -6.81853,-13.38452 l 5.05076,-1.26269 -3.03046,-3.53553 c 0,0 4.79823,-3.283 7.82869,-8.08122 3.03045,-4.79823 7.07106,-17.93021 9.34391,-19.44544 2.27284,-1.51523 7.07106,-2.27284 7.07106,-2.27284 l -1.26269,-2.27285 8.33376,-8.58629 -2.52538,-4.04061 1.76777,-6.31346 -2.77792,-0.75761 1.51523,-4.54569 -2.77792,-31.8198 -17.93021,-21.71828 -4.79822,-3.283 0.50507,-5.55584 c 0,0 2.27285,-1.01015 2.52538,-2.27284 0.25254,-1.26269 -0.25253,-8.83884 -2.0203,-9.34391 -1.76777,-0.50508 -11.11168,-1.26269 -12.12183,-3.53554 -1.01015,-2.27284 -0.75762,-4.04061 -0.75762,-4.04061 l 1.76777,-1.76776 -3.53553,-4.79823 3.78807,-2.77792 c 0,0 -2.52538,-3.28299 -5.3033,-4.04061 -2.77792,-0.75761 -12.12183,-2.0203 -12.12183,-2.0203 l -0.25254,-2.52538 c 0,0 -7.07107,0.50507 -8.83884,-2.02031 -1.76776,-2.52538 -3.03045,-7.57614 -3.03045,-7.57614 h -4.54569 l 0.50508,8.33376 5.05076,8.33375 10.10152,3.53554 2.02031,5.3033 -1.76777,7.32361 7.07107,8.33375 5.80838,5.3033 8.33376,18.94036 c 0,0 -3.53554,2.77792 -6.31346,2.77792 -2.77792,0 -3.53553,-3.28299 -5.3033,-4.04061 -1.76777,-0.75761 -6.06091,-1.51522 -9.34391,-0.25253 -3.283,1.26269 -5.05076,4.29314 -7.32361,3.78807 -2.27284,-0.50508 -7.57614,-4.79823 -9.34391,-4.79823 -1.76776,0 -4.04061,1.01016 -4.04061,1.01016 l 1.51523,17.17259 c 0,0 1.76777,1.01015 3.53554,4.54569 1.76776,3.53553 2.0203,15.9099 2.0203,15.9099 0,0 0.50508,-0.25254 3.283,3.03046 2.77792,3.28299 8.83883,15.40482 8.83883,15.40482 0,0 -9.09137,8.08122 -11.86929,9.84899 -2.77792,1.76777 -34.85026,8.5863 -38.13326,9.59645 -3.283,1.01015 -9.34391,12.37437 -10.6066,15.40483 -1.26269,3.03045 -0.25254,11.36421 -0.25254,11.36421 l -9.59645,2.02031 c 0,0 1.76777,2.77792 6.31346,5.05076 4.54568,2.27284 7.07106,1.26269 10.10152,3.53553 3.03046,2.27285 0.50508,2.27285 3.283,3.78808 2.77792,1.51522 3.28299,0 6.81853,1.01015 3.53553,1.01015 1.76776,1.76776 4.29314,1.76776 2.52539,0 7.82869,-1.51522 7.82869,-1.51522 0,0 -0.50508,5.3033 0.50507,6.81853 1.01016,1.51522 2.27285,2.77792 2.27285,2.77792 0,0 3.03045,-3.03046 7.07106,-3.283 4.04061,-0.25254 3.283,4.79822 3.283,4.79822 l -6.81853,4.29315 -0.25254,4.04061 6.31346,1.76777 -3.78808,3.53553 -4.04061,1.76777 -0.25254,4.04061 2.27285,3.03046 -2.52538,2.0203 -3.283,-0.50507 -2.52538,5.3033 1.26269,8.33376 -1.51523,8.58629 -8.08122,6.31346 4.54569,7.82868 -3.28299,7.07106 -4.79823,3.97747 -2.52539,5.24017 c 0,0 -5.3033,3.91435 -6.31345,5.42958 -1.01015,1.51523 -2.52538,10.6066 0.25254,12.87944 2.77792,2.27285 0.50508,3.03046 4.79823,4.29315 4.29314,1.26269 4.04061,1.26269 4.04061,1.26269 l 1.51522,9.09138 -3.53553,8.33375 c 0,0 5.05076,-2.27284 8.08122,-3.03045 3.03046,-0.75762 3.78807,1.26269 3.78807,1.26269 0,0 1.51523,-8.08122 4.79823,-8.08122 3.28299,0 1.76776,5.3033 1.76776,5.3033 l 7.57615,4.54568 c 0,0 4.29315,-3.78807 5.55584,-4.04061 1.26269,-0.25253 2.52538,2.77792 2.52538,2.77792 l 5.05076,-4.29315 0.50508,3.78808 c 0,0 2.0203,-0.75762 3.53553,-0.50508 1.51523,0.25254 4.04061,3.78807 4.04061,3.78807 0,0 3.53554,-3.28299 6.06092,-4.04061 2.52538,-0.75761 8.08122,3.78807 10.35406,3.283 2.27284,-0.50508 5.55584,-3.53554 3.78807,-5.80838 -1.76776,-2.27284 -12.6269,-8.33376 -12.6269,-8.33376 l 3.53553,-3.53553 c 0,0 3.283,3.03046 6.06092,1.01015 2.77791,-2.0203 1.01015,-12.87944 3.28299,-13.63706 2.27284,-0.75761 5.05076,1.01015 7.32361,-0.50507 2.27284,-1.51523 3.28299,-4.04061 3.28299,-6.31346 0,-2.27284 -2.77792,-4.29315 -2.52538,-6.56599 0.25254,-2.27284 4.79823,-6.81853 4.79823,-6.81853 l -5.05077,-2.52538 -4.54568,-0.75762 -2.77792,-2.27284 h -5.3033 c 0,0 2.0203,-3.53553 2.27284,-6.31345 0.25254,-2.77792 -1.01015,-7.07107 -1.01015,-7.07107 l -12.12183,-2.52538 z"
       id="path4890"
       inkscape:connector-curvature="0"
       sodipodi:nodetypes="cccccssssssssscccsscccccccccccsssccccsccsccccccccccsssssccscscsssccssssscscsccccccccccccccccccssscccscsccscccscsssccssssscccccsccc" />
  </g>
  <g
     inkscape:groupmode="layer"
     id="layer4"
     inkscape:label="Zealand"
     style="display:inline">
    <path
       id="path4893"
       style="fill:#c0c0c0;fill-opacity:1;stroke:#000000;stroke-width:1px;stroke-linecap:butt;stroke-linejoin:miter;stroke-opacity:1"
       d="M 101.07617 563.72266 C 100.36642 563.72649 99.598214 563.76814 98.75 563.85742 C 91.964286 564.57171 87.142578 566.53599 82.142578 571.35742 C 77.142578 576.17885 78.035156 577.96374 79.285156 580.28516 C 80.535156 582.60659 84.643136 587.07198 94.107422 585.46484 C 103.57171 583.85769 98.571711 578.32088 105.35742 577.78516 C 110.17885 577.78516 108.21374 581.17857 111.78516 583.5 C 115.35659 585.82143 118.21513 583.49972 119.82227 585.64258 C 121.42941 587.78543 120.00028 595.46457 122.85742 597.60742 C 125.71457 599.75028 128.39258 596.89258 130.89258 598.14258 C 133.39258 599.39258 131.07059 602.07171 133.92773 602.60742 C 136.78487 603.14314 145.3563 602.78487 151.42773 598.67773 C 157.49916 594.57059 162.32171 591.17829 160.35742 585.64258 C 158.39314 580.10686 152.32198 584.39202 148.21484 582.42773 C 144.10769 580.46345 144.10798 573.49945 139.82227 570.28516 C 135.53655 567.07088 123.92802 566.53571 115.53516 566 C 108.19141 565.53125 106.04443 563.6958 101.07617 563.72266 z M 169.4043 591.66211 C 169.04463 591.65295 168.70508 591.6702 168.39258 591.71484 C 163.39258 592.42912 159.46374 595.82115 160.53516 598.14258 C 161.60659 600.46401 174.64341 602.60742 174.46484 605.10742 C 174.28626 607.60742 170.35798 608.32227 167.32227 608.32227 C 164.28655 608.32227 164.64314 605.28516 157.85742 605.28516 C 151.07171 605.28516 139.28516 607.25 139.28516 611 C 139.28516 614.75 144.46374 614.92885 145.53516 616.35742 C 146.60659 617.78599 145.89341 620.99945 146.96484 621.53516 C 148.03626 622.07088 150.17912 620.82088 151.96484 622.78516 C 153.75055 624.74945 151.07115 626.89341 154.64258 629.21484 C 158.21401 631.53626 170.35798 629.39286 172.32227 631 C 174.28655 632.60714 176.42773 635.10742 176.42773 635.10742 L 183.21484 635.10742 L 184.46484 623.85742 L 178.39258 614.03516 L 179.64258 604.03516 L 185 597.60742 C 185 597.60742 174.79937 591.79943 169.4043 591.66211 z M 112.30078 606.82227 C 107.20962 606.69531 99.664896 608.4548 95.892578 609.03516 C 91.249721 609.74945 90.893136 606.71513 85.357422 607.07227 C 79.821708 607.42941 75 610.28516 75 610.28516 C 75 610.28516 82.678572 618.32171 83.75 621.35742 C 84.821429 624.39314 84.464286 625.82227 86.25 625.82227 C 88.035714 625.82227 88.570591 625.10798 91.427734 623.32227 C 94.284876 621.53655 96.249718 620.64258 100.89258 620.64258 C 105.53543 620.64258 115.53516 623.14258 116.78516 623.14258 C 118.03516 623.14258 122.32227 620.10659 122.32227 617.78516 C 122.32227 615.46374 119.82171 608.67857 115.35742 607.25 C 114.52037 606.98214 113.47566 606.85156 112.30078 606.82227 z M 63.035156 608.5 C 55.178014 608.5 41.249721 620.46513 39.642578 620.82227 C 38.035435 621.17941 36.25 620.64202 35 622.42773 C 33.75 624.21345 33.928851 627.96374 34.107422 629.03516 C 34.285993 630.10659 36.249721 629.39314 37.142578 631.35742 C 38.035435 633.32171 53.75 651.89314 58.75 653.85742 C 63.75 655.82171 71.786551 654.92885 73.572266 653.85742 C 75.35798 652.78599 79.821429 647.78516 81.25 647.78516 C 82.678572 647.78516 83.213448 648.67802 82.677734 650.28516 C 82.142019 651.89231 80 651.53655 81.25 653.32227 C 82.5 655.10798 85.535993 656.35742 86.607422 658.85742 C 87.678851 661.35742 88.928293 663.67941 90.892578 664.57227 C 92.856864 665.46513 97.856585 663.85714 99.285156 664.75 C 100.71373 665.64286 104.46484 673.14258 106.96484 673.14258 C 109.46484 673.14258 109.46513 670.10714 112.32227 669.75 C 115.17941 669.39286 116.78487 670.46374 120.17773 669.03516 C 123.57059 667.60659 123.39231 655.10742 129.28516 652.60742 C 135.17802 650.10742 139.82227 650.28487 142.32227 653.67773 C 144.82227 657.07059 143.74916 656.71401 145.17773 658.14258 C 146.6063 659.57115 148.21429 657.78655 150 659.57227 C 151.78571 661.35798 151.78543 664.21484 154.64258 666.71484 C 157.49972 669.21484 160.53655 672.07198 166.07227 671.71484 C 171.60798 671.35769 170.53487 667.07227 175.17773 667.07227 C 179.82059 667.07227 185.53571 672.96429 187.5 674.75 C 189.46429 676.53571 190.53516 675.82227 190.53516 675.82227 L 193.92773 675.28516 L 191.42773 668.67773 C 191.42773 668.67773 193.92773 667.96374 193.92773 666.53516 C 193.92773 665.10659 190 656.53516 190 656.53516 C 190 656.53516 189.28655 656.8937 186.07227 657.07227 C 182.85798 657.25084 178.57059 656.71401 175.17773 656.89258 C 171.78487 657.07115 171.24945 658.32227 168.03516 658.32227 C 164.82088 658.32227 161.07059 655.64341 157.67773 651.71484 C 154.28487 647.78626 151.78599 639.03655 150.35742 638.32227 C 148.92885 637.60798 147.85742 638.14314 146.60742 637.60742 C 145.35742 637.07171 139.99945 631.17912 136.78516 630.46484 C 133.57088 629.75055 131.96345 630.82198 130.17773 629.21484 C 128.39202 627.60769 129.46513 626.35714 127.32227 626 C 125.17941 625.64286 124.28626 627.07115 121.96484 626.89258 C 119.64341 626.71401 117.50028 624.39258 116.60742 624.39258 C 115.71457 624.39258 115.89314 625.82227 112.85742 625.82227 C 109.82171 625.82227 100.71401 623.14314 95.892578 625.10742 C 91.07115 627.07171 89.464565 632.07171 86.607422 631.35742 C 83.750279 630.64314 82.321987 629.57198 81.964844 627.96484 C 81.607701 626.35769 83.215123 627.25028 81.072266 625.10742 C 78.929409 622.96457 70.892299 608.5 63.035156 608.5 z M 49.480469 664.49609 C 46.756559 664.55652 43.374257 665.07911 40.533203 666.3418 C 35.987516 668.36211 18.435547 675.30859 18.435547 675.30859 C 18.435547 675.30859 19.066604 677.20108 19.824219 679.34766 C 20.581833 681.49423 23.486913 681.74767 23.234375 685.2832 C 22.981836 688.81874 19.572068 689.44952 18.814453 693.11133 C 18.056839 696.77313 21.970118 697.53086 22.222656 698.54102 C 22.475194 699.55117 21.591212 702.58233 21.84375 703.71875 C 22.096288 704.85517 23.10772 705.48535 24.244141 706.74805 C 25.380563 708.01074 28.1585 708.26328 29.294922 709.27344 C 30.431343 710.28359 31.946779 712.81006 32.578125 713.44141 C 33.20947 714.07275 49.624712 715.20869 51.013672 714.07227 C 52.402631 712.93585 49.876953 711.54785 49.876953 710.28516 C 49.876953 709.02247 51.391309 708.76914 51.517578 707.25391 C 51.643847 705.73868 49.876566 704.09726 50.886719 702.58203 C 51.896871 701.0668 55.306551 699.55078 57.453125 699.55078 C 59.599699 699.55078 61.745706 702.96151 62.755859 702.70898 C 63.766012 702.45644 61.872273 696.64766 63.892578 696.14258 C 65.912883 695.63751 70.58438 700.05578 72.099609 701.69727 C 73.614838 703.33877 79.929012 702.32969 82.328125 703.33984 C 84.727237 704.34999 85.736724 706.49551 87.251953 706.74805 C 88.767182 707.00058 88.767588 706.37051 91.292969 706.62305 C 93.818351 706.87558 98.362993 709.02129 99.751953 710.78906 C 101.14091 712.55682 99.120509 716.97716 99.373047 719.25 C 99.625585 721.52285 100.13125 723.542 101.64648 724.80469 C 103.16171 726.06738 109.9797 725.31055 112 725.31055 C 114.02031 725.31055 115.41045 721.7747 116.54688 721.64844 C 117.6833 721.52217 119.95508 722.02637 119.95508 723.28906 C 119.95508 724.55175 117.55605 724.55323 117.80859 726.44727 C 118.06113 728.34131 118.44083 729.09824 121.21875 728.8457 C 123.99667 728.59316 126.01729 722.53193 127.40625 722.6582 C 128.79521 722.78447 130.9417 725.43691 132.07812 725.68945 C 133.21454 725.94198 143.44248 715.71289 145.08398 715.71289 C 146.72548 715.71289 147.86027 718.36503 151.26953 717.60742 C 154.6788 716.8498 177.91377 694.12256 179.30273 692.22852 C 180.69169 690.33449 180.31143 688.69317 181.19531 687.93555 C 182.0792 687.17794 184.85742 685.91406 184.85742 685.91406 C 184.85742 685.91406 182.96347 681.87332 180.18555 677.95898 C 177.40763 674.04464 174.12568 674.67549 171.72656 676.06445 C 169.32745 677.45341 173.99961 681.49512 172.48438 682.75781 C 170.96915 684.0205 167.05478 678.58994 164.9082 678.96875 C 162.76163 679.34756 168.44287 684.65255 166.54883 685.41016 C 164.6548 686.16778 160.36269 680.99043 158.08984 679.22266 C 155.817 677.45489 149.88104 677.20262 148.11328 675.30859 C 146.34551 673.41455 145.84091 671.39315 144.95703 668.61523 C 144.07315 665.83731 141.80009 665.3333 139.14844 665.20703 C 136.49679 665.08076 134.72852 666.3418 134.72852 666.3418 C 134.72852 666.3418 132.70927 678.21114 131.32031 678.96875 C 129.93135 679.72637 129.6786 678.21203 125.51172 679.85352 C 121.34484 681.49502 113.01172 688.94531 113.01172 688.94531 C 113.01172 688.94531 103.66679 684.77773 101.64648 683.76758 C 99.626179 682.75742 99.625387 683.01045 98.615234 683.13672 C 97.605082 683.26299 96.46875 687.55664 96.46875 687.55664 C 96.46875 687.55664 79.0452 675.43379 75.130859 673.66602 C 71.216518 671.89825 67.427527 672.90849 64.144531 671.51953 C 60.861535 670.13057 55.811221 665.45947 53.412109 664.82812 C 52.512442 664.59137 51.114815 664.45984 49.480469 664.49609 z " />
  </g>
  <g
     inkscape:groupmode="layer"
     id="layer7"
     inkscape:label="North Brabant"
     style="display:inline">
    <path
       style="fill:#c0c0c0;fill-opacity:1;stroke:#000000;stroke-width:1px;stroke-linecap:butt;stroke-linejoin:miter;stroke-opacity:1"
       d="m 426.96875,539.03125 -5.90625,5.375 -11.78125,-2.15625 -4.8125,3.40625 -9.8125,16.59375 -11.25,5.34375 -11.25,-2.84375 -12.875,0.53125 -2.125,-7.6875 -7.15625,-3.5625 -3.21875,2.5 -16.4375,-13.5625 -14.28125,-1.4375 -4.625,3.03125 -16.78125,6.4375 -6.625,1.96875 -4.8125,10 -12.5,8.9375 c 0,0 -4.65625,5.16072 -12.15625,8.375 -7.5,3.21429 -15.16518,5.35715 -24.09375,2.5 -8.92858,-2.85714 -10.1875,-3.375 -12.6875,-3.375 -2.5,0 -2.84375,0.875 -2.84375,0.875 0,0 0.69197,4.27679 -2.34375,8.5625 -3.03571,4.28572 -15.52232,11.63393 -21.59375,10.5625 -6.07143,-1.07143 -8.75,-1.8125 -8.75,-1.8125 l -6.875,8.78125 -0.9375,7.40625 -0.0312,0.25 v 0.0312 l 6.0625,9.78125 0.34375,0.5625 -0.875,10.6875 c 0,0 9.63393,5.20089 9.8125,13.59375 0.12062,5.6692 -3.402,7.57147 -5.71875,8.21875 1.55692,-0.17578 1.96875,-0.375 1.96875,-0.375 0,0 3.9375,8.57143 3.9375,10 0,1.42858 -2.5,2.15625 -2.5,2.15625 l 2.5,6.59375 -1.1875,0.1875 h 0.8125 c 0,0 7.52232,-1.0625 8.59375,-1.0625 1.07143,0 2.85714,9.44643 8.75,9.625 5.89285,0.17858 12.65625,-5.1875 12.65625,-5.1875 l -8.375,-15.53125 c 0,0 1.60714,-0.33928 1.25,-2.125 -0.35714,-1.78571 -3.21875,-3.75 -3.21875,-3.75 0,0 2.30803,-2.50447 7.84375,-4.46875 5.53571,-1.96429 7.5,-0.36161 10,-1.96875 2.5,-1.60714 0.54018,-2.87053 1.96875,-3.40625 1.42858,-0.53571 8.58482,-2.85714 12.15625,-1.25 3.57143,1.60715 -1.25893,6.79018 -1.4375,9.46875 -0.17857,2.67857 1.78125,6.625 1.78125,6.625 0,0 5.91071,-1.44196 10.375,-2.15625 4.46428,-0.71428 5.33482,3.04911 10.15625,2.15625 4.82143,-0.89286 3.9375,-1.25 3.9375,-1.25 0,0 -0.72322,-3.5759 2.3125,-5.71875 3.03571,-2.14286 3.3884,-0.70536 5.53125,-3.5625 2.14286,-2.85715 0.90625,-4.82589 3.40625,-6.96875 2.5,-2.14286 7.66964,-5.90179 9.8125,-6.4375 2.14286,-0.53571 9.11161,6.61607 9.46875,8.9375 0.35715,2.32143 -1.59375,0.87947 -1.59375,5.34375 v 9.65625 c 0,0 -4.65625,-2.86607 -8.40625,-1.4375 -3.75,1.42857 -5.16965,5.35268 1.4375,5.53125 6.60714,0.17858 16.77232,-0.89285 20.34375,0 3.57143,0.89286 5.53125,5.53125 5.53125,5.53125 L 334.65625,656 l -0.375,-6.59375 5.90625,-5.5625 c 0,0 0.004,3.04018 3.21875,4.46875 3.21428,1.42857 5.86608,1.08482 8.1875,7.15625 2.32143,6.07142 2.6875,6.4375 2.6875,6.4375 0,0 -3.40178,1.22768 -5.1875,5.15625 -1.78571,3.92857 -2.67857,5.20089 1.25,9.84375 3.92858,4.64285 6.09821,7.125 8.0625,10.875 1.96428,3.75 -0.18303,6.78125 1.78125,8.03125 1.96429,1.25 2.85268,1.25893 5.53125,0.1875 2.67857,-1.07143 -0.37054,-2.66518 4.09375,-2.84375 4.46429,-0.17857 9.46875,2.67411 9.46875,6.78125 0,4.10714 -2.3125,10 -2.3125,10 0,0 16.25,-0.53125 21.25,-0.53125 5,0 13.9375,2.3125 13.9375,2.3125 0,0 2.65625,-4.10715 5.15625,-5 2.5,-0.89286 3.3884,0.34822 5.53125,-0.1875 2.14286,-0.53571 3.93304,-5.71875 9.46875,-3.21875 5.53571,2.5 3.41072,4.48214 5.375,6.625 1.96429,2.14286 3.5625,2.65625 3.5625,2.65625 0,0 -1.08036,1.45535 -0.1875,5.5625 0.55804,2.56696 1.38818,4.02673 1.9375,4.75 l 9.5625,-2 c 0,0 -1.01269,-8.34455 0.25,-11.375 1.26269,-3.03046 7.31075,-14.3961 10.59375,-15.40625 3.283,-1.01015 35.34708,-7.82598 38.125,-9.59375 2.77792,-1.76777 11.875,-9.84375 11.875,-9.84375 0,0 -6.06583,-12.12326 -8.84375,-15.40625 -2.77792,-3.283 -3.28125,-3.03125 -3.28125,-3.03125 0,0 -0.23224,-12.37072 -2,-15.90625 -1.76777,-3.53554 -3.5625,-4.5625 -3.5625,-4.5625 l -1.5,-17.15625 c 0,0 2.26349,-1.03125 4.03125,-1.03125 1.76777,0 7.07091,4.30742 9.34375,4.8125 2.27285,0.50507 4.06075,-2.51856 7.34375,-3.78125 3.283,-1.26269 7.57598,-0.50761 9.34375,0.25 1.76777,0.75762 2.50333,4.03125 5.28125,4.03125 2.77792,0 6.3125,-2.78125 6.3125,-2.78125 l -8.3125,-18.9375 -5.8125,-5.3125 -7.0625,-8.3125 1.75,-7.34375 -2.03125,-5.28125 -10.09375,-3.5625 -5.03125,-8.3125 -0.0312,-0.5625 -0.84375,-0.59375 -8.0625,-2.5 -12.5,0.34375 -15.875,-10.1875 -8.21875,-9.46875 -15.1875,-0.6875 -4.09375,3.375 -7.5,-3.75 z M 324.25,654.21875 l -5.53125,8.34375 -1.03125,-7.09375 z"
       id="path4912"
       inkscape:connector-curvature="0" />
  </g>
  <g
     inkscape:groupmode="layer"
     id="layer8"
     inkscape:label="Gelderland"
     style="display:inline">
    <path
       style="fill:#c0c0c0;fill-opacity:1;stroke:#000000;stroke-width:1px;stroke-linecap:butt;stroke-linejoin:miter;stroke-opacity:1"
       d="m 489.46875,329.21875 c 0,0 1.61161,11.25446 -9.28125,24.46875 -10.89285,13.21429 -20.71875,15.33928 -23.21875,17.125 -2.5,1.78571 0.16964,2.70089 -3.9375,4.84375 -4.10715,2.14285 -5.71429,0.70982 -7.5,1.78125 -1.78572,1.07143 0.17857,2.125 -1.25,4.625 -1.42858,2.5 -6.25892,4.28571 -7.6875,7.5 -1.42857,3.21428 -3.20982,13.57143 -5.53125,16.25 -2.32143,2.67857 -23.90625,6.625 -23.90625,6.625 0,0 1.07143,6.59821 2.5,9.8125 1.42857,3.21428 4.08482,4.2991 3.90625,5.90625 -0.17857,1.60714 -2.5,3.90179 -2.5,5.6875 0,1.78572 10.91518,3.9375 12.34375,6.4375 1.42857,2.5 3.20535,6.97322 -0.1875,13.9375 -3.39286,6.96429 -4.28125,6.41965 -3.03125,8.5625 1.25,2.14286 4.9866,2.86161 9.09375,-0.53125 4.10714,-3.39286 3.92857,-7.33482 6.25,-5.90625 2.32142,1.42857 1.07589,10.90625 1.96875,13.40625 0.89286,2.5 2.67857,1.61607 3.75,3.9375 1.07143,2.32143 -0.71428,3.19643 0,5.875 0.71429,2.67857 2.51339,1.25447 3.40625,4.46875 0.89286,3.21429 -1.79911,2.6741 0.34375,5.53125 2.14286,2.85714 5.87947,3.20982 6.59375,5.53125 0.71429,2.32143 -0.875,8.75 -0.875,8.75 l -11.78125,-0.6875 -19.65625,-10.71875 -22.5,6.40625 -3.03125,2.6875 -8.9375,-1.25 -7.5,-5.34375 -7.84375,4.28125 -5.90625,-3.03125 c 0,0 0.19643,6.0625 -0.875,8.5625 -1.07143,2.5 -8.75,16.26339 -11.25,17.15625 -2.5,0.89285 -5.1875,-0.0134 -6.4375,1.59375 -1.25,1.60714 -0.90179,4.28125 -2.6875,5.53125 -1.78571,1.25 -9.46875,0.53572 -10.71875,1.25 -1.25,0.71429 -2.13839,4.47322 -0.53125,5.1875 1.60714,0.71429 4.64733,-0.35268 5.71875,0.71875 1.07143,1.07143 -0.71875,6.59375 -0.71875,6.59375 l -3.59375,1.9375 14.3125,11.8125 3.21875,-2.5 7.15625,3.5625 2.125,7.6875 12.875,-0.53125 11.25,2.84375 11.25,-5.34375 9.8125,-16.59375 4.8125,-3.40625 11.78125,2.15625 5.90625,-5.375 7.5,3.75 4.09375,-3.375 15.1875,0.6875 8.21875,9.46875 15.875,10.1875 12.5,-0.34375 8.0625,2.5 0.84375,0.59375 -0.5,-7.78125 h 4.5625 c 0,0 1.26349,5.03712 3.03125,7.5625 1.76777,2.52538 8.84375,2.03125 8.84375,2.03125 v 0.0625 c 3.62409,-1.532 6.69489,-4.13578 6.0625,-8.5625 -1.42857,-10 -7.6875,-12.5 -7.6875,-12.5 l 4.125,-4.28125 c 0,0 6.61161,1.97768 13.21875,-2.84375 6.60714,-4.82143 4.4375,-8.03125 4.4375,-8.03125 l 17.6875,5.875 c 0,0 0.53571,-5.1875 -1.25,-7.6875 -1.78572,-2.5 -10.34375,-8.375 -10.34375,-8.375 l 9.625,-2.15625 c 0,0 6.60268,8.20982 9.28125,9.28125 2.67858,1.07143 13.39286,-0.17411 15,0.71875 1.60715,0.89285 4.46875,6.25 4.46875,6.25 0,0 7.33036,-0.875 8.9375,0.375 1.60714,1.25 2.5,4.09375 2.5,4.09375 l 7.3125,1.78125 -0.15625,-6.40625 c 0,0 -5.89286,-3.05357 -2.5,-5.375 3.39286,-2.32143 4.45535,2.67857 7.3125,2.5 2.85714,-0.17857 3.38392,-1.96875 4.8125,-1.96875 1.42857,0 1.61607,3.20982 3.9375,3.03125 2.32143,-0.17857 11.59821,-5.87947 12.3125,-7.84375 0.71428,-1.96429 0.36161,-3.22768 1.96875,-3.40625 1.60714,-0.17857 2.15179,2.32589 3.9375,1.96875 1.78572,-0.35715 5.34822,-4.09375 9.8125,-6.59375 4.46429,-2.5 10,-5.1875 10,-5.1875 0,0 4.29465,5.73214 7.6875,5.375 3.39286,-0.35715 7.3125,-4.29464 11.0625,-7.6875 3.75,-3.39285 5.34375,-8.03125 5.34375,-8.03125 0,0 -1.95536,-0.72322 -1.0625,-2.6875 0.89285,-1.96429 3.74554,-1.25 4.28125,-3.75 0.53571,-2.5 -0.16964,-6.0625 -1.0625,-7.3125 -0.89286,-1.25 -4.09375,-1.09375 -4.09375,-1.09375 0,0 -4.30804,-5.16518 -9.84375,-9.09375 -5.53571,-3.92857 -12.5,-7.15625 -12.5,-7.15625 l -0.53125,-6.78125 c 0,0 6.62054,1.62054 9.65625,-1.59375 3.03572,-3.21428 1.40625,-12.6875 1.40625,-12.6875 0,0 -4.45982,0 -9.28125,-1.25 -4.82143,-1.25 -5.35714,-1.23215 -6.25,-2.125 -0.89286,-0.89286 0.1875,-10.02678 -1.0625,-11.8125 -1.25,-1.78571 -2.3125,-3.03125 -2.3125,-3.03125 0,0 -6.42411,4.125 -8.03125,4.125 -1.60714,0 -1.79911,-4.10268 -3.40625,-4.28125 -1.60714,-0.17858 -8.20089,1.05357 -10.34375,0.875 -2.14286,-0.17857 -4.3125,-1.4375 -4.3125,-1.4375 0,0 -4.25893,3.04018 -5.6875,1.96875 -1.42857,-1.07143 -8.41072,-9.44197 -9.125,-11.40625 -0.71429,-1.96429 -0.17411,-3.95536 -3.03125,-6.8125 -2.85714,-2.85714 -10.1875,-3.19642 -13.9375,-0.875 -3.75,2.32143 -4.28125,7.5 -4.28125,7.5 0,0 -4.63839,-2.85268 -9.28125,-3.03125 -4.64286,-0.17857 -11.78125,0.34375 -11.78125,0.34375 0,0 0.52678,-1.78571 -1.4375,-2.5 -1.96429,-0.71428 -4.8125,1.0625 -4.8125,1.0625 l -6.25,-5.34375 -5.90625,-15.1875 c 0,0 -7.14286,0 -8.75,-1.25 -1.60714,-1.25 -4.10714,-11.24107 -2.5,-12.3125 1.60714,-1.07143 7.34375,-4.46875 7.34375,-4.46875 L 542.84375,366 c 0,0 -6.06696,-0.89286 -8.03125,-3.75 -1.96429,-2.85714 -0.17411,-6.07143 0.71875,-6.25 0.89285,-0.17857 3.21875,-1.25 3.21875,-1.25 l -10,-15.90625 -8.03125,-4.625 L 510,344.5625 l -2.84375,-3.21875 -2.5,2.6875 -11.09375,-14.625 z"
       id="path4915"
       inkscape:connector-curvature="0" />
  </g>
  <g
     inkscape:groupmode="layer"
     id="layer9"
     inkscape:label="South Holland"
     style="display:inline">
    <path
       id="path4918"
       style="fill:#c0c0c0;fill-opacity:1;stroke:#000000;stroke-width:1px;stroke-linecap:butt;stroke-linejoin:miter;stroke-opacity:1"
       d="M 236.0625 386.1875 C 236.0625 386.1875 231.41964 395.65179 222.3125 412.4375 C 213.20536 429.22321 196.25893 448.30804 186.4375 460.09375 C 176.61607 471.87947 162.84375 490.28125 162.84375 490.28125 C 162.84375 490.28125 168.20536 499.03571 166.0625 497.25 C 163.91964 495.46428 155.89286 493.15179 152.5 492.4375 C 149.10714 491.72321 150.3616 490.47321 148.21875 489.9375 C 146.07589 489.40179 142.85268 489.75 143.03125 493.5 C 143.20983 497.25 146.07143 497.41518 146.25 500.09375 C 146.42857 502.77232 140.52678 507.4375 139.8125 508.6875 C 139.09821 509.9375 137.33482 511.54018 139.65625 514.21875 C 141.97768 516.89733 148.91518 511.16964 150.34375 513.3125 C 151.77232 515.45535 148.58036 516.71875 147.6875 520.46875 C 146.79464 524.21875 150.18303 524.40179 151.96875 526.1875 C 153.75446 527.97321 152.30804 528.33482 154.09375 531.90625 C 155.87947 535.47767 160.5491 536.89733 163.40625 537.96875 C 166.26339 539.04018 165.16964 537.26339 169.8125 538.15625 C 174.45536 539.0491 172.67857 541.17857 177.5 543.5 C 182.32143 545.82143 190.5491 548.1384 192.15625 550.28125 C 193.76339 552.42411 190.71429 553.32143 195 557.25 C 199.28571 561.17857 202.84375 560.82589 207.84375 562.96875 C 212.84375 565.1116 215.01339 568.15625 223.40625 571.90625 C 231.7991 575.65625 238.93303 577.79464 246.96875 577.4375 C 255.00446 577.08036 257.14732 571.8884 261.96875 569.03125 C 266.79017 566.17411 273.21875 569.21875 273.21875 569.21875 L 284.28125 562.0625 L 289.8125 552.4375 L 305 548.15625 L 311.78125 542.59375 L 328.40625 542.25 L 336.375 541.65625 C 336.83426 539.99134 337.55183 536.95808 336.78125 536.1875 C 335.70983 535.11607 332.66964 536.1835 331.0625 535.46875 C 329.45536 534.75447 330.34375 530.99554 331.59375 530.28125 C 332.84375 529.56697 340.52679 530.28125 342.3125 529.03125 C 344.09821 527.78125 343.75 525.10714 345 523.5 C 346.25 521.89285 348.9375 522.7991 351.4375 521.90625 C 353.9375 521.01339 361.61607 507.25 362.6875 504.75 C 363.67522 502.44531 363.58256 497.3191 363.5625 496.5 L 358.5625 491 L 352.5 486.34375 L 341.0625 493.6875 L 331.25 495.28125 L 326.96875 499.21875 L 316.4375 504.75 L 311.25 504.75 C 311.25 504.75 310.52232 500.47321 306.59375 496.1875 C 302.66518 491.90179 299.2991 487.95982 299.65625 486.53125 C 300.01339 485.10268 303.73661 485.99554 305.34375 485.28125 C 306.9509 484.56697 307.33036 482.77678 306.4375 482.0625 C 305.54464 481.34821 297.49554 482.60714 296.78125 481 C 296.06697 479.39286 298.92411 474.20535 300.53125 473.3125 C 302.1384 472.41964 304.29464 473.50893 305.1875 472.4375 C 306.08036 471.36607 307.50446 468.84375 306.96875 467.59375 C 306.43303 466.34375 301.96875 467.25 301.96875 467.25 C 301.96875 467.25 300.53125 464.9375 299.28125 461.1875 C 298.03125 457.4375 300.18303 455.29018 299.46875 452.96875 C 298.75446 450.64733 296.25 451.72767 295 449.40625 C 293.75 447.08482 295.35268 444.5625 298.03125 443.3125 C 300.70983 442.0625 305.70536 443.15625 307.3125 443.15625 C 308.91964 443.15625 311.59821 438.49107 311.0625 437.0625 C 310.52678 435.63393 303.04017 432.42857 300.71875 429.75 C 298.39732 427.07143 299.46875 426.34375 299.46875 426.34375 C 299.46875 426.34375 294.64732 426.37055 293.21875 424.40625 C 291.7985 422.45342 296.56196 420.14444 294.6875 418.1875 C 294.6738 418.1925 294.5625 418.21875 294.5625 418.21875 L 278.5625 433.6875 L 278.40625 421 C 278.40625 421 279.63024 418.99054 280.90625 416.4375 C 280.94185 416.32424 280.93685 416.3459 280.96875 416.25 C 281.10279 415.84703 281.25 415.46875 281.25 415.46875 C 281.25 415.46875 275.69817 415.45975 270.3125 416.4375 C 269.74061 417.15881 269.09375 417.96875 269.09375 417.96875 L 265.90625 422.96875 C 265.90625 422.96875 261.99853 422.25743 258.21875 421.375 C 255.09101 422.95143 252.03609 424.51356 249.65625 425.28125 C 244.12053 427.06697 241.59375 425.09375 241.59375 425.09375 C 241.59375 425.09375 241.95983 423.33482 244.28125 421.90625 C 246.60268 420.47767 249.46875 418.6875 249.46875 418.6875 C 249.46875 418.6875 249.40235 418.5984 249.3125 418.4375 C 248.98749 418.30211 247.6875 417.78125 247.6875 417.78125 L 235 390.09375 C 235 390.09375 235.72228 388.13104 236.34375 386.4375 C 236.28405 386.3861 236.0625 386.1875 236.0625 386.1875 z M 142.14258 531.71484 C 140.53543 531.3577 127.50084 537.42773 124.82227 538.67773 C 122.1437 539.92773 123.39202 538.85686 121.42773 539.39258 C 119.46345 539.92829 114.46513 544.57143 113.57227 546 C 112.67941 547.42857 115.17912 551.53543 116.96484 551.89258 C 118.75055 552.24972 119.10769 551.35714 124.46484 548.5 C 129.82198 545.64286 134.46374 545.28599 140.53516 547.60742 C 146.60659 549.92885 149.28571 570.28599 151.25 572.60742 C 153.21429 574.92885 163.21374 574.57088 168.03516 576.53516 C 172.85659 578.49945 170.53655 579.03571 173.57227 581 C 176.60798 582.96429 182.14231 583.85742 185.53516 585.10742 C 188.92802 586.35742 189.28516 589.03487 190.53516 589.92773 C 191.78516 590.82059 192.67885 589.92884 195.35742 590.10742 C 198.03599 590.28599 198.03516 590.10769 201.78516 590.46484 C 205.53516 590.82198 210.35769 590.46401 213.21484 585.64258 C 212.72765 583.58978 211.39842 581.33722 206.96484 578.32227 C 201.96484 573.85798 197.14314 573.32198 192.85742 570.46484 C 188.57171 567.60769 188.75084 565.82143 183.57227 559.75 C 178.3937 553.67857 170.53571 551.53599 166.25 548.85742 C 161.96429 546.17885 143.74972 532.07199 142.14258 531.71484 z " />
  </g>
  <g
     inkscape:groupmode="layer"
     id="layer10"
     inkscape:label="North Holland"
     style="display:inline">
    <path
       id="path4923"
       style="fill:#c0c0c0;fill-opacity:1;stroke:#000000;stroke-width:1px;stroke-linecap:butt;stroke-linejoin:miter;stroke-opacity:1"
       d="M 302.11133 122.56641 C 297.8771 122.7497 287.2327 141.35212 284.46484 146.71484 C 281.60769 152.25056 281.42941 153.50028 278.57227 158.85742 C 275.71513 164.21456 273.74972 165.10798 273.39258 170.82227 C 273.03543 176.53655 272.49972 185.82143 280.89258 186 C 286.96401 186.89286 291.07088 174.57227 294.28516 173.32227 C 297.49945 172.07227 297.50084 174.39286 299.82227 172.25 C 302.1437 170.10714 300.00055 167.07199 303.21484 164.21484 C 306.42912 161.3577 307.32143 162.78627 308.75 159.21484 C 310.17857 155.64342 307.32171 155.46373 307.85742 151.53516 C 308.39314 147.60659 311.78626 138.14231 310.71484 136.53516 C 309.64341 134.92802 308.03626 136.71428 306.96484 134.75 C 305.89341 132.78571 306.42857 123.67885 302.5 122.60742 C 302.37723 122.57394 302.24792 122.56049 302.11133 122.56641 z M 269.64258 185.19727 C 267.99079 185.10798 265.8937 185.46345 263.57227 186.17773 C 258.92941 187.6063 256.6063 191.53516 258.92773 192.78516 C 261.24916 194.03516 274.46374 190.99972 273.03516 186.89258 C 272.49945 185.82115 271.29436 185.28655 269.64258 185.19727 z M 285.9375 192.51758 C 283.21429 192.56222 279.99945 192.964 278.03516 194.39258 C 274.10659 197.24972 273.21513 208.32199 271.07227 217.96484 C 268.92941 227.6077 270.35686 228.8577 267.14258 239.21484 C 263.92829 249.57199 258.92773 262.25028 258.92773 265.10742 C 258.92773 267.96456 261.25 271.17885 261.25 275.10742 C 261.25 279.03599 257.49916 282.60798 257.67773 292.07227 C 257.8563 301.53655 258.21429 300.82171 256.25 311.35742 C 254.28571 321.89314 249.28516 344.03516 249.28516 344.03516 C 249.28516 344.03516 248.57227 350.28655 247.32227 357.07227 C 246.07227 363.85798 241.60714 370.10686 240 375.64258 C 238.39286 381.17829 235 390.10742 235 390.10742 L 247.67773 417.78516 C 247.67773 417.78516 248.92857 418.32143 252.5 419.75 C 256.07143 421.17857 265.89258 422.96484 265.89258 422.96484 L 269.10742 417.96484 C 269.10742 417.96484 279.46457 404.21344 282.85742 406.17773 C 286.25028 408.14202 278.39258 421 278.39258 421 L 278.57227 433.67773 L 294.55273 418.23242 C 294.55273 418.23242 299.28626 416.53627 301.96484 414.21484 C 304.64341 411.89342 302.8563 409.92885 305.17773 408.85742 C 307.49916 407.78599 312.32115 409.57199 314.64258 407.96484 C 316.96401 406.3577 317.32227 402.25 317.32227 402.25 C 317.32227 402.25 322.5 403.32115 325 401.89258 C 327.5 400.464 327.32088 394.03571 329.28516 393.5 C 331.24945 392.96428 333.03516 393.14258 333.03516 393.14258 L 331.96484 400.46484 C 331.96484 400.46484 341.07059 396.17829 342.67773 396.89258 C 344.28488 397.60686 342.67773 401.71484 342.67773 401.71484 C 342.67773 401.71484 346.78488 401.17913 347.67773 402.96484 C 348.57059 404.75056 348.57198 406.53571 346.96484 407.25 C 345.35769 407.96428 341.07227 406.71484 341.07227 406.71484 L 340.53516 416.71484 C 340.53516 416.71484 343.57059 419.57088 346.42773 420.28516 C 349.28488 420.99945 356.42885 418.49945 357.85742 420.28516 C 359.286 422.07088 360.35742 424.92802 359.10742 426.53516 C 357.85742 428.14231 356.42773 428.32199 356.42773 429.21484 C 356.42773 430.1077 355.35658 432.07115 361.78516 431.89258 C 368.21373 431.714 369.28544 430.46484 370.89258 426.71484 C 372.49972 422.96484 370.17773 424.03627 371.42773 421.71484 C 372.67773 419.39342 375.71513 410.82143 377.32227 408.5 C 378.92941 406.17857 377.85686 404.92913 379.64258 402.96484 C 381.42829 401.00056 388.39258 399.03516 388.39258 399.03516 C 388.39258 399.03516 387.85769 396.53516 384.46484 395.28516 C 381.07198 394.03516 374.10658 390.28655 370.53516 390.82227 C 366.96373 391.35798 365.53488 392.96373 362.67773 392.78516 C 359.82059 392.60659 353.75028 382.42885 349.10742 382.60742 C 344.46457 382.78599 342.49972 383.32143 340.89258 383.5 C 339.28544 383.67857 331.78543 379.21344 328.39258 378.67773 C 324.99972 378.14202 322.32227 373.14258 322.32227 373.14258 L 323.92773 371 C 323.92773 371 328.21513 370.82199 329.82227 370.46484 C 331.42941 370.1077 334.99916 363.50084 337.67773 362.07227 C 340.3563 360.6437 345.17941 355.82059 343.57227 353.67773 C 341.96513 351.53487 336.78543 353.1437 337.14258 348.32227 C 337.49972 343.50084 340.71484 345.464 340.71484 341.89258 C 340.71484 338.32115 340.17829 336.89258 342.14258 334.39258 C 344.10686 331.89258 345.71484 330.99945 343.21484 327.78516 C 340.71484 324.57088 334.10742 313.32143 334.10742 311 C 334.10742 308.67857 332.85659 308.14314 331.78516 306.35742 C 330.71374 304.57171 329.64314 298.67885 331.60742 296.35742 C 333.57171 294.03599 343.75 292.07059 346.25 292.42773 C 348.75 292.78487 351.42801 297.78543 353.03516 298.14258 C 354.6423 298.49972 369.46513 289.214 371.07227 286.89258 C 372.67941 284.57115 371.60798 281.89202 373.57227 279.92773 C 375.53656 277.96344 382.32171 276.00056 382.85742 272.96484 C 383.39314 269.92913 383.21513 259.214 381.07227 258.14258 C 378.92941 257.07115 371.78572 254.21512 368.75 254.57227 C 365.71429 254.92941 361.42912 261.00056 358.21484 260.46484 C 355.00055 259.92913 355.17773 258.85714 353.92773 257.25 C 352.67773 255.64286 353.03516 253.32115 351.78516 251.89258 C 350.53516 250.464 348.57227 247.96484 348.57227 247.96484 C 348.57227 247.96484 351.25084 228.14231 349.82227 225.28516 C 348.3937 222.42802 336.07227 201.17773 336.07227 201.17773 L 323.57227 199.92773 C 323.57227 199.92773 320.17941 205.64258 317.32227 208.14258 C 314.46513 210.64258 310 213.14258 310 213.14258 C 310 213.14258 314.46484 216.17773 314.46484 218.67773 C 314.46484 221.17773 313.57088 224.21512 309.28516 220.82227 C 304.99945 217.42941 303.92773 213.14258 303.92773 213.14258 C 303.92773 213.14258 293.74945 211.53571 291.78516 206 C 289.82088 200.46428 290.89258 192.78516 290.89258 192.78516 C 290.89258 192.78516 288.66071 192.47293 285.9375 192.51758 z M 347.50195 339.34375 C 347.44299 339.34549 347.3834 339.36071 347.32227 339.39258 C 346.83323 339.64753 347.38057 348.33716 347.67773 348.5 C 347.97489 348.66284 351.29519 349.74971 353.21484 348.14258 C 353.03627 346.714 348.90037 343.22685 348.66016 342.96484 C 348.41993 342.70283 348.91284 340.25888 348.57227 340.10742 C 348.27427 339.97489 347.91469 339.33155 347.50195 339.34375 z " />
  </g>
  <g
     inkscape:groupmode="layer"
     id="layer11"
     inkscape:label="Utrecht"
     style="display:inline">
    <path
       style="fill:#c0c0c0;fill-opacity:1;stroke:#000000;stroke-width:1px;stroke-linecap:butt;stroke-linejoin:miter;stroke-opacity:1"
       d="m 331.90625,393.125 c -0.69196,0.0223 -1.64285,0.10714 -2.625,0.375 -1.96428,0.53571 -1.78125,6.97767 -4.28125,8.40625 -2.5,1.42857 -7.6875,0.34375 -7.6875,0.34375 0,0 -0.33482,4.11161 -2.65625,5.71875 -2.32143,1.60715 -7.14732,-0.19643 -9.46875,0.875 -2.32143,1.07143 -0.54018,3.05358 -3.21875,5.375 -2.60007,2.25339 -7.04914,3.8741 -7.3125,3.96875 1.91172,1.96001 -2.86122,4.26115 -1.4375,6.21875 1.42857,1.96428 6.25,1.9375 6.25,1.9375 0,0 -1.07143,0.72768 1.25,3.40625 2.32142,2.67857 9.80803,5.88393 10.34375,7.3125 0.53571,1.42857 -2.14286,6.09375 -3.75,6.09375 -1.60714,0 -6.60267,-1.09375 -9.28125,0.15625 -2.67857,1.25 -4.28125,3.77232 -3.03125,6.09375 1.25,2.32142 3.75446,1.24108 4.46875,3.5625 0.71428,2.32143 -1.4375,4.46875 -0.1875,8.21875 1.25,3.75 2.6875,6.0625 2.6875,6.0625 0,0 4.46428,-0.90625 5,0.34375 0.53571,1.25 -0.88839,3.77232 -1.78125,4.84375 -0.89286,1.07143 -3.0491,-0.0179 -4.65625,0.875 -1.60714,0.89285 -4.46428,6.08036 -3.75,7.6875 0.71429,1.60714 8.76339,0.34821 9.65625,1.0625 0.89286,0.71428 0.5134,2.50447 -1.09375,3.21875 -1.60714,0.71429 -5.33036,-0.17857 -5.6875,1.25 -0.35715,1.42857 3.00893,5.37054 6.9375,9.65625 3.92857,4.28571 4.65625,8.5625 4.65625,8.5625 h 5.1875 l 10.53125,-5.53125 4.28125,-3.9375 9.8125,-1.59375 11.4375,-7.34375 6.0625,4.65625 5,5.5 c -0.002,-0.0694 0,-0.3125 0,-0.3125 l 5.90625,3.03125 7.84375,-4.28125 7.5,5.34375 8.9375,1.25 3.03125,-2.6875 22.5,-6.40625 19.65625,10.71875 11.78125,0.6875 c 0,0 1.58929,-6.42857 0.875,-8.75 -0.71428,-2.32143 -4.45089,-2.67411 -6.59375,-5.53125 -2.14286,-2.85715 0.54911,-2.31696 -0.34375,-5.53125 -0.89286,-3.21428 -2.69196,-1.79018 -3.40625,-4.46875 -0.71428,-2.67857 1.07143,-3.55357 0,-5.875 -1.07143,-2.32143 -2.85714,-1.4375 -3.75,-3.9375 -0.89286,-2.5 0.35267,-11.97768 -1.96875,-13.40625 -2.32143,-1.42857 -2.14286,2.51339 -6.25,5.90625 -4.10715,3.39286 -7.84375,2.67411 -9.09375,0.53125 -1.25,-2.14285 -0.36161,-1.59821 3.03125,-8.5625 3.39285,-6.96428 1.61607,-11.4375 0.1875,-13.9375 -1.42857,-2.5 -12.34375,-4.65178 -12.34375,-6.4375 0,-1.78571 2.32143,-4.08036 2.5,-5.6875 0.17857,-1.60715 -2.47768,-2.69197 -3.90625,-5.90625 -1.37731,-3.09895 -2.3955,-9.21209 -2.46875,-9.65625 -3.68002,-2.45633 -7.7496,-5.12476 -9.34375,-6.0625 -3.03571,-1.78571 -5.53125,-1.0625 -8.03125,-3.5625 -2.5,-2.5 -1.5,-3.5 -1.5,-3.5 l -0.375,-0.3125 c -1.17163,0.34437 -6.67953,2.05061 -8.28125,3.8125 -1.78572,1.96429 -0.73661,3.20982 -2.34375,5.53125 -1.60714,2.32143 -4.625,10.89733 -5.875,13.21875 -1.25,2.32143 1.07589,1.25 -0.53125,5 -1.60714,3.75 -2.69643,5.00892 -9.125,5.1875 -6.42858,0.17857 -5.34375,-1.79464 -5.34375,-2.6875 0,-0.89285 1.40625,-1.08035 2.65625,-2.6875 1.25,-1.60714 0.17858,-4.46428 -1.25,-6.25 -1.19164,-1.48955 -6.3166,-0.0276 -9.65625,0.0937 -0.0866,4.75838 -0.33624,12.05823 -1.1875,13.25 -1.26269,1.76777 -8.4586,2.01523 -9.46875,0.5 -1.01015,-1.51523 0.24746,-9.45939 0.5,-13.5 0.22608,-3.61744 2.09398,-3.96189 2.5,-4 l 0.53125,-9.875 c -0.97558,-0.42218 -1.97039,-0.87898 -2.28125,-1.25 -0.69196,-0.82589 -0.41071,-2.9241 0.4375,-3.28125 0.80435,-0.33865 3.20829,-0.51415 3.46875,-0.53125 0.0335,-0.0862 1.58993,-4.07462 0,-4.78125 -1.60714,-0.71429 -10.71875,3.5625 -10.71875,3.5625 l 1.0625,-7.3125 c 0,0 -0.43304,-0.0537 -1.125,-0.0312 z"
       id="path4926"
       inkscape:connector-curvature="0" />
  </g>
  <g
     inkscape:groupmode="layer"
     id="layer16"
     inkscape:label="Flevoland"
     style="display:inline">
    <path
       id="path4977"
       style="fill:#c0c0c0;fill-opacity:1;stroke:#000000;stroke-width:1px;stroke-linecap:butt;stroke-linejoin:miter;stroke-opacity:1"
       d="M 460.9375 230.25 C 460.27566 230.44685 458.03177 231.10195 455.71875 231.71875 C 453.04018 232.43304 451.97768 231.00447 450.90625 231.71875 C 449.83482 232.43304 448.91518 237.4375 445.34375 243.6875 C 441.77233 249.9375 436.61607 253.6875 436.4375 254.9375 C 436.25893 256.1875 436.4285 261.53125 437.5 270.28125 C 438.57143 279.03125 435.88393 282.77678 437.3125 284.5625 C 438.74107 286.34821 441.07589 285.64286 445.71875 291 C 450.3616 296.35714 448.91518 299.03571 450.34375 299.75 C 451.77233 300.46428 468.76339 299.55804 475.90625 298.84375 C 483.04911 298.12947 509.65625 291.88393 509.65625 288.3125 C 509.65625 284.74107 505.87947 287.7991 502.84375 284.40625 C 499.80804 281.01339 504.27679 279.39286 504.8125 277.25 L 506.65625 269.875 C 501.46384 263.47828 489.67156 251.5562 487.90625 250.28125 C 485.63341 248.63976 479.32646 249.26269 477.9375 248 C 476.54854 246.73731 475.53125 241.3125 475.53125 241.3125 C 475.53125 241.3125 475.675 241.07365 475.9375 240.75 C 475.41092 239.6591 473.00141 235.04758 468.09375 232.59375 C 465.85195 231.47285 463.32398 230.77047 460.9375 230.25 z M 446.25 300.28516 C 444.82143 300.10659 431.07227 308.14231 428.57227 310.28516 C 426.07227 312.42802 426.78488 314.75028 425.17773 316.35742 C 423.57059 317.96456 420.8923 315.82227 415.53516 318.32227 C 410.17801 320.82227 406.07059 335.28571 405.17773 337.25 C 404.28488 339.21428 400.17773 337.24916 400.17773 338.67773 C 400.17773 340.1063 403.21513 340.464 403.57227 341.89258 C 403.92941 343.32115 401.96345 346.35742 400.17773 346.35742 C 398.39202 346.35742 394.64258 344.39258 394.64258 344.39258 C 394.64258 344.39258 391.42941 350.99972 387.32227 353.14258 C 383.21513 355.28543 379.82227 352.60742 379.82227 352.60742 C 379.82227 352.60742 355.53572 364.75028 355 366.35742 C 354.46429 367.96456 355.00028 378.85659 355.35742 380.28516 C 355.71457 381.71373 357.85742 384.92773 357.85742 384.92773 L 360.89258 383.14258 C 363.92829 381.35686 364.10798 382.25056 376.07227 384.21484 C 388.03656 386.17913 405.71484 407.42773 406.96484 407.42773 C 408.21484 407.42773 426.25084 402.78655 427.32227 402.07227 C 428.3937 401.35798 434.10769 387.07171 434.46484 385.10742 C 434.82198 383.14314 431.25 378.67773 431.25 378.67773 C 431.25 378.67773 434.64314 375.10714 436.60742 374.75 C 438.57171 374.39286 441.07143 375.82059 445 373.67773 C 448.92857 371.53487 450.17801 365.82088 451.78516 364.03516 C 453.3923 362.24945 454.46484 362.6063 461.96484 359.92773 C 469.46484 357.24916 476.07143 352.24945 482.5 342.78516 C 488.92857 333.32088 485.35769 315.64342 479.46484 311.71484 C 477.67912 310.64342 471.96373 311.3563 469.28516 311.17773 C 466.60658 310.99916 464.46345 307.96428 461.42773 307.25 C 458.39202 306.53571 456.96429 306.71512 451.25 304.57227 C 445.53572 302.42941 447.67857 300.46373 446.25 300.28516 z " />
  </g>
  <g
     inkscape:groupmode="layer"
     id="layer12"
     inkscape:label="Overijssel"
     style="display:inline">
    <path
       style="fill:#c0c0c0;fill-opacity:1;stroke:#000000;stroke-width:1px;stroke-linecap:butt;stroke-linejoin:miter;stroke-opacity:1"
       d="m 534.375,226.9375 -6.8125,3.65625 c 0,0 -0.8961,-0.5 -1.90625,-0.5 -1.01015,0 -1.89102,3.5211 -3.40625,4.53125 -1.51523,1.01015 -7.58106,3.78759 -8.84375,3.15625 -1.26269,-0.63135 -2.91085,-6.68623 -5.5625,-6.8125 -2.65165,-0.12627 -5.171,3.3999 -6.8125,4.03125 -1.64149,0.63134 -4.54806,5.55997 -9.09375,5.8125 -4.54569,0.25254 -7.30568,-2.53252 -11.09375,-2.40625 -3.78807,0.12627 -5.3125,2.90625 -5.3125,2.90625 0,0 1.01729,5.42481 2.40625,6.6875 1.38896,1.26269 7.69591,0.63976 9.96875,2.28125 2.27284,1.6415 21.21875,20.97589 21.21875,23.375 0,2.39911 -3.67989,2.25713 -4.4375,4.65625 -0.75762,2.39911 0.63975,4.17862 2.28125,5.0625 1.6415,0.88388 7.20733,0.63467 8.34375,2.78125 1.13642,2.14657 1.75301,4.03839 -1.65625,6.4375 -3.40926,2.39911 -26.89102,8.94972 -28.40625,10.84375 -1.51523,1.89404 -0.61533,1.39054 1.53125,6.0625 2.14657,4.67195 2.625,19.15625 2.625,19.15625 l 0.15625,0.5625 4,0.1875 11.09375,14.625 2.5,-2.6875 2.84375,3.21875 10.71875,-10.34375 8.03125,4.625 10,15.90625 c 0,0 -2.3259,1.07143 -3.21875,1.25 -0.89286,0.17857 -2.68304,3.39286 -0.71875,6.25 1.96429,2.85714 8.03125,3.75 8.03125,3.75 l -6.9375,9.28125 c 0,0 -5.73661,3.39732 -7.34375,4.46875 -1.60714,1.07143 0.89286,11.0625 2.5,12.3125 1.60714,1.25 8.75,1.25 8.75,1.25 l 5.90625,15.1875 6.25,5.34375 c 0,0 2.84821,-1.77678 4.8125,-1.0625 1.96428,0.71429 1.4375,2.5 1.4375,2.5 0,0 7.13839,-0.52232 11.78125,-0.34375 4.64286,0.17857 9.28125,3.03125 9.28125,3.03125 0,0 0.53125,-5.17857 4.28125,-7.5 3.75,-2.32142 11.08036,-1.98214 13.9375,0.875 2.85714,2.85714 2.31696,4.84821 3.03125,6.8125 0.71428,1.96428 7.69643,10.33482 9.125,11.40625 1.42857,1.07143 5.6875,-1.96875 5.6875,-1.96875 0,0 2.16964,1.25893 4.3125,1.4375 2.14286,0.17857 8.73661,-1.05358 10.34375,-0.875 1.60714,0.17857 1.79911,4.28125 3.40625,4.28125 1.60714,0 8.03125,-4.125 8.03125,-4.125 0,0 1.0625,1.24554 2.3125,3.03125 1.25,1.78572 0.16964,10.91964 1.0625,11.8125 0.89286,0.89285 1.42857,0.875 6.25,2.125 3.34203,0.86645 6.4016,1.10592 8.03125,1.1875 l 1.3125,-0.0312 c 0,0 15.05314,1.02412 19.09375,-1.375 4.04061,-2.39911 3.23984,-7.51222 4.25,-9.40625 1.01015,-1.89404 4.79473,-6.58487 6.5625,-7.46875 1.76776,-0.88388 5.06583,0.003 7.84375,-3.40625 2.77792,-3.40927 0.49826,-7.5671 3.78125,-10.21875 3.283,-2.65165 6.68956,-1.89482 9.59375,-3.03125 2.90419,-1.13642 4.65625,-2.15625 4.65625,-2.15625 0,0 -6.69003,-9.08946 -6.4375,-12.625 0.25254,-3.53553 2.02237,-13.01221 2.90625,-14.90625 0.88389,-1.89403 3.41133,-4.78664 2.90625,-10.46875 -0.50508,-5.68211 -1.01935,-9.47335 -5.3125,-12.125 -4.29315,-2.65165 -3.76221,-5.55489 -5.65625,-6.3125 -1.89403,-0.75762 -4.0671,-12.375 -6.71875,-12.375 -2.65165,0 -5.66593,11.37246 -7.8125,11.625 -2.14658,0.25254 -5.04425,-1.38722 -9.96875,-3.28125 -4.92449,-1.89404 -4.80314,-4.4375 -8.84375,-4.4375 -4.04061,0 -4.29045,1.78252 -9.59375,1.65625 -5.3033,-0.12627 -15.53125,-7.19289 -15.53125,-12.875 0,-5.68211 1.38515,-8.20479 0.375,-9.59375 -1.01015,-1.38896 -4.28125,-6.8125 -4.28125,-6.8125 0,0 5.17354,0.48017 6.5625,-0.65625 1.38896,-1.13642 -0.26776,-2.40245 1.5,-2.78125 1.76777,-0.37881 6.5625,0 6.5625,0 l -8.4375,-9.34375 -0.28125,-11.96875 -4.28125,-0.25 2.40625,-4.9375 -18.9375,-6.3125 c 0,0 -13.01475,2.51983 -14.65625,3.65625 -1.6415,1.13642 -2.14863,1.75841 -2.90625,4.03125 -0.75761,2.27285 -0.625,10.625 -0.625,10.625 l -6.3125,-3.53125 -5.0625,4.28125 -3.65625,-4.53125 -6.0625,4.78125 -3.78125,-5.9375 c 0,0 1.51269,-2.13848 0.25,-3.90625 -1.26269,-1.76777 -9.59375,-3.78125 -9.59375,-3.78125 L 573.25,283.5 c 0,0 -8.82598,0.25635 -10.59375,-0.375 -1.76777,-0.63134 -3.046,-3.40498 -4.6875,-3.53125 -1.64149,-0.12627 -10.4586,-0.27617 -11.46875,-0.78125 -1.01015,-0.50507 -10.34756,-18.04981 -9.96875,-19.3125 0.37881,-1.2627 13.24365,-9.9586 13.875,-10.96875 0.63134,-1.01016 0.63134,-4.80362 0,-5.6875 C 549.7749,241.95986 534.375,226.9375 534.375,226.9375 Z"
       id="path4933"
       inkscape:connector-curvature="0" />
  </g>
  <g
     inkscape:groupmode="layer"
     id="layer13"
     inkscape:label="Drenthe"
     style="display:inline">
    <path
       style="fill:#c0c0c0;fill-opacity:1;stroke:#000000;stroke-width:1px;stroke-linecap:butt;stroke-linejoin:miter;stroke-opacity:1"
       d="m 599.28125,113.40625 c -2.39911,0 -14.01729,12.75968 -15.40625,14.90625 -1.38896,2.14658 -7.34375,23.34375 -7.34375,23.34375 h -6.6875 c 0,0 -1.63642,2.0211 -0.5,3.03125 1.13642,1.01015 7.70606,1.66339 8.96875,4.0625 1.26269,2.39911 -1.14404,10.23302 0.75,15.03125 1.89403,4.79822 12.75,12.74317 12.75,16.53125 0,3.78807 -8.18528,16.52363 -14.625,17.28125 -6.43972,0.75761 -7.21875,-5.15625 -7.21875,-5.15625 0,0 -9.70606,-0.2665 -10.96875,1.375 -1.2627,1.64149 -1.26888,5.69543 -8.71875,11.125 -6.87311,5.00921 -14.6336,11.01726 -15.90625,12 0,0 15.3999,15.02236 16.03125,15.90625 0.63134,0.88388 0.63134,4.67734 0,5.6875 -0.63135,1.01015 -13.49619,9.70605 -13.875,10.96875 -0.37881,1.26269 8.9586,18.80743 9.96875,19.3125 1.01015,0.50508 9.82726,0.65498 11.46875,0.78125 1.6415,0.12627 2.91973,2.89991 4.6875,3.53125 1.76777,0.63135 10.59375,0.375 10.59375,0.375 l 1.65625,2.78125 c 0,0 8.33106,2.01348 9.59375,3.78125 1.26269,1.76777 -0.25,3.90625 -0.25,3.90625 l 3.78125,5.9375 6.0625,-4.78125 3.65625,4.53125 5.0625,-4.28125 6.3125,3.53125 c 0,0 -0.13261,-8.35215 0.625,-10.625 0.75762,-2.27284 1.26475,-2.89483 2.90625,-4.03125 1.6415,-1.13642 14.65625,-3.65625 14.65625,-3.65625 l 18.9375,6.3125 -2.40625,4.9375 4.28125,0.25 0.28125,-2.28125 c 0,0 12.24477,-5.44004 22.09375,-5.1875 9.84899,0.25254 14.39737,3.90625 15.28125,3.90625 0.88388,0 5.15323,-3.38007 8.5625,-2.875 3.40926,0.50508 9.46447,4.66514 13,3.78125 3.53553,-0.88388 3.4375,-1.15625 3.4375,-1.15625 0,0 -1.16133,-16.27855 -0.65625,-25.875 0.50508,-9.59645 3.03125,-37.375 3.03125,-37.375 0,0 -4.7922,0.64023 -6.8125,-0.875 -2.02031,-1.51523 1.38896,-5.04601 0,-6.6875 -1.38896,-1.6415 -6.4375,-2.28125 -6.4375,-2.28125 0,0 5.31631,-8.47716 4.9375,-10.75 -0.37881,-2.27284 -6.3171,-2.51047 -8.96875,-7.6875 -2.65165,-5.17703 -1.65196,-5.30187 -5.1875,-9.46875 -3.53553,-4.16688 -15.66593,-16.02696 -17.8125,-19.5625 -2.14658,-3.53553 -22.96701,-24.89102 -26.25,-26.40625 -3.283,-1.51523 -3.90625,-1.125 -3.90625,-1.125 0,0 -2.29601,3.03505 -3.9375,2.65625 -1.6415,-0.37881 -2.75,-2.40625 -2.75,-2.40625 0,0 -3.40831,4.03505 -6.3125,3.65625 -2.90418,-0.37881 -4.57471,-2.15451 -6.46875,-5.4375 -1.89403,-3.283 -0.7584,-6.16847 -3.03125,-8.0625 -2.27284,-1.89404 -3.78204,0.99667 -6.8125,-1.78125 -3.03045,-2.77792 -2.50254,-3.0211 -2.25,-4.03125 0.25254,-1.01015 1.50127,-2.27236 1.375,-3.15625 -0.12627,-0.88388 -10.85089,-8.21875 -13.25,-8.21875 z"
       id="path4936"
       inkscape:connector-curvature="0" />
  </g>
  <g
     inkscape:groupmode="layer"
     id="layer14"
     inkscape:label="Groningen"
     style="display:inline">
    <path
       id="path4947"
       style="fill:#c0c0c0;fill-opacity:1;stroke:#000000;stroke-width:1px;stroke-linecap:butt;stroke-linejoin:miter;stroke-opacity:1"
       d="M 616.38477 7.5839844 C 614.15262 7.6063058 611.78543 7.7854353 610.89258 8.1425781 C 607.85686 10.464007 611.60714 12.606864 615 13.142578 C 618.39286 13.678293 621.78656 8.5005581 621.07227 7.9648438 C 620.71512 7.6969866 618.61691 7.5616629 616.38477 7.5839844 z M 596.07227 8.3222656 C 593.21513 8.3222656 587.50055 8.4997213 586.96484 11.892578 C 586.60769 16.356864 600.8937 13.142578 602.32227 11.892578 C 603.75084 10.642578 598.92941 8.3222656 596.07227 8.3222656 z M 642.375 34.375 C 641.42379 34.551086 641.26333 35.933058 639.9375 36.375 C 638.42227 36.880076 637.0119 35.89229 632.71875 37.28125 C 628.4256 38.67021 625.79188 41.954791 621.625 43.34375 C 617.45812 44.73271 621.37945 42.581852 608.5 46.875 C 595.62056 51.168149 593.46082 48.373731 588.03125 48.5 C 582.60168 48.626269 568.84803 58.625 565.3125 58.625 C 561.77697 58.625 559.12674 54.580267 555.84375 52.8125 C 552.56075 51.044733 545.34756 52.8049 544.96875 53.5625 C 544.58994 54.320114 553.8125 61.125 553.8125 61.125 C 553.8125 61.125 546.23398 60.517291 544.71875 61.90625 C 543.20352 63.29521 546.23477 67.069637 547.75 69.46875 C 549.26523 71.867862 548.65196 69.712405 552.1875 70.34375 C 555.72303 70.975095 555.6367 73.610068 556.09375 73.875 C 556.5508 74.139932 559.86485 73.521098 560.875 74.53125 C 561.88515 75.541403 563.03125 78.298063 563.03125 82.84375 C 563.03125 87.389436 559.1039 88.037119 558.09375 90.5625 C 557.0836 93.087881 558.23525 95.219543 556.59375 98.25 C 554.95226 101.28046 551.66386 101.9256 550.90625 106.21875 C 550.14863 110.51189 554.3125 108.72414 554.3125 114.40625 C 554.3125 120.08835 543.84248 124.02602 543.96875 133.875 C 544.09502 143.72399 552.67052 144.85977 557.46875 146.375 C 562.26697 147.89023 561.51095 144.71875 563.53125 144.71875 C 565.55156 144.71875 564.67227 146.22842 566.1875 148.375 C 567.56958 150.33295 569.39422 151.62555 569.71875 151.84375 C 569.76595 151.77985 569.84375 151.65625 569.84375 151.65625 L 576.53125 151.65625 C 576.53125 151.65625 582.48604 130.45908 583.875 128.3125 C 585.26396 126.16593 596.88214 113.40625 599.28125 113.40625 C 601.68036 113.40625 612.40498 120.74112 612.53125 121.625 C 612.65752 122.50889 611.40879 123.7711 611.15625 124.78125 C 610.90371 125.7914 610.3758 126.03458 613.40625 128.8125 C 616.43671 131.59042 617.94591 128.69971 620.21875 130.59375 C 622.4916 132.48778 621.35597 135.37325 623.25 138.65625 C 625.14404 141.93924 626.81457 143.71494 629.71875 144.09375 C 632.52667 144.45999 635.75443 140.78092 635.96875 140.53125 C 636.01125 138.92351 636.09324 137.5953 636.21875 137.21875 C 636.66069 135.89293 638.03331 133.6875 640.9375 133.6875 C 643.79805 133.6875 642.87259 139.96549 642.84375 140.15625 C 643.11089 140.10515 644.00491 140.10325 646.625 141.3125 C 649.90799 142.82773 670.72842 164.18322 672.875 167.71875 C 675.02157 171.25429 687.15197 183.11437 690.6875 187.28125 C 694.22304 191.44813 693.22335 191.57297 695.875 196.75 C 698.52665 201.92703 704.46494 202.16466 704.84375 204.4375 C 705.22256 206.71034 699.90625 215.1875 699.90625 215.1875 C 699.90625 215.1875 704.95479 215.82725 706.34375 217.46875 C 707.73271 219.11024 704.32344 222.64102 706.34375 224.15625 C 708.36405 225.67148 713.15625 225.03125 713.15625 225.03125 C 713.15625 225.03125 713.1259 225.42757 713.125 225.4375 C 713.62822 223.70368 715.51563 217.40624 716.71875 215.4375 C 718.10771 213.16466 724.52442 205.70241 728.3125 198 C 732.10057 190.29759 730.32979 184.99842 731.71875 178.9375 C 733.10771 172.87658 735.53125 173.77158 735.53125 171.625 C 735.53125 169.47843 734.38896 169.60184 733 165.6875 C 731.61104 161.77316 732.47256 161.25143 732.09375 151.78125 C 731.71494 142.31107 726.5625 139.43544 726.5625 136.53125 C 726.5625 133.62706 728.95986 131.33534 729.84375 129.0625 C 730.72763 126.78965 729.33233 127.68671 730.46875 124.65625 C 731.60517 121.62579 733.24873 121.85644 733.375 120.59375 C 733.50127 119.33106 731.96875 118.60137 731.96875 117.84375 C 731.96875 117.08614 734.125 115.04775 734.125 113.40625 C 734.125 111.76476 730.84375 104.4375 730.84375 104.4375 C 730.84375 104.4375 728.43417 104.82139 725.65625 103.9375 C 722.87833 103.05362 723.00556 102.41894 719.34375 101.15625 C 715.68195 99.893563 715.82567 102.18417 711.40625 99.40625 C 706.98683 96.62833 708.23271 94.225572 706.84375 90.4375 C 705.45479 86.649428 709.38516 82.353903 708.375 81.34375 C 707.36485 80.333597 706.71542 82.230963 703.9375 84.125 C 701.15958 86.019036 696.76031 84.611994 686.40625 79.6875 C 676.05218 74.763006 673.25301 71.096449 669.84375 61.5 C 666.43448 51.903551 667.44766 49.64832 666.4375 44.21875 C 665.42735 38.78918 661.26523 36.501269 659.75 36.375 C 658.23477 36.248731 657.4705 38.652443 654.1875 39.03125 C 650.90451 39.410057 644.23271 34.627538 642.84375 34.375 C 642.67013 34.34343 642.51089 34.34985 642.375 34.375 z " />
  </g>
  <g
     inkscape:groupmode="layer"
     id="layer15"
     inkscape:label="Friesland"
     style="display:inline">
    <path
       id="path4954"
       style="fill:#c0c0c0;fill-opacity:1;stroke:#000000;stroke-width:1px;stroke-linecap:butt;stroke-linejoin:miter;stroke-opacity:1"
       d="M 570.20703 20.34375 C 569.87138 20.327366 569.53431 20.329722 569.2207 20.349609 C 566.44835 20.525412 556.34117 25.400777 546.49219 24.390625 C 536.6432 23.380472 532.09706 25.401192 529.82422 30.957031 C 527.55138 36.51287 531.59239 41.310547 533.86523 41.310547 C 536.13807 41.310547 535.38009 37.270108 539.92578 34.492188 C 544.47146 31.714268 548.26057 33.987102 553.81641 31.966797 C 559.37225 29.946492 560.48109 27.42831 563.41211 26.158203 C 565.30615 25.337449 566.74727 25.831987 568.30469 25.275391 C 570.8751 24.356771 573.38778 23.506534 572.50391 21.107422 C 572.20696 20.618654 571.21398 20.392902 570.20703 20.34375 z M 497.07812 32.746094 C 494.0595 32.716499 490.93495 32.881861 488.66211 32.976562 C 482.6012 33.229101 477.29725 32.976959 471.23633 34.492188 C 465.17542 36.007416 465.17615 38.280665 459.11523 38.533203 C 453.05432 38.785741 443.96151 36.007813 441.18359 36.007812 C 438.40568 36.007812 435.37638 41.563292 438.1543 44.59375 C 440.93222 47.624207 442.19358 49.39121 448.00195 49.138672 C 453.81033 48.886134 458.86173 41.310547 462.90234 41.310547 C 466.94295 41.310547 465.68048 43.835937 468.71094 43.835938 C 471.7414 43.835938 485.12542 39.542969 491.69141 39.542969 C 498.2574 39.542969 506.84375 39.28944 506.84375 35.753906 C 506.84375 33.386361 502.10916 32.795418 497.07812 32.746094 z M 424.86133 41.179688 C 422.97715 41.093371 420.25597 41.785038 416.94141 42.574219 C 411.63811 43.83691 402.54607 48.886719 396.99023 48.886719 C 391.43439 48.886719 373.50311 55.2002 370.47266 56.462891 C 367.4422 57.725582 356.0791 65.302357 354.81641 68.837891 C 353.55372 72.373425 355.57286 78.687302 357.8457 77.929688 C 360.11854 77.172073 358.85743 76.161902 361.38281 72.878906 C 363.90819 69.59591 363.6553 71.362291 369.96875 67.574219 C 376.2822 63.786147 378.55549 65.301952 381.58594 64.796875 C 384.6164 64.291799 384.11115 63.786911 385.87891 63.029297 C 387.64668 62.271682 388.90821 64.292573 391.43359 62.777344 C 393.95897 61.262116 393.20256 59.493547 398.50586 57.220703 C 403.80916 54.94786 409.11153 57.724798 412.39453 55.957031 C 415.67752 54.189264 412.39454 53.432216 414.91992 50.654297 C 417.4453 47.876377 429.56776 47.876151 427.29492 42.320312 C 426.82141 41.562698 425.99183 41.231477 424.86133 41.179688 z M 529.625 54.0625 C 524.00717 54.13787 507.24545 56.429846 503.8125 57.96875 C 500.1507 59.610248 500.2868 60.010944 496.625 62.03125 C 492.96319 64.051555 490.81425 62.889752 487.53125 64.53125 C 484.24826 66.172748 478.1829 68.699714 475.53125 70.59375 C 472.8796 72.487786 462.13309 74.759675 458.21875 76.90625 C 454.30441 79.052824 439.42656 84.987309 437.40625 86.25 C 435.38595 87.51269 429.94639 95.725888 429.0625 98.125 C 428.17862 100.52411 423.75428 103.32091 420.21875 105.59375 C 416.68322 107.86659 412.658 110.51427 409.375 115.3125 C 406.092 120.11072 405.07646 128.18702 403.6875 131.34375 C 402.29854 134.50048 403.17656 141.06075 401.15625 144.34375 C 399.13595 147.62674 397.35644 147.1131 396.09375 151.40625 C 394.83106 155.6994 400.65752 162.38927 400.53125 167.1875 C 400.40499 171.98572 399.5 172.00587 399.5 174.53125 C 399.5 177.05663 400.64609 181.22081 401.65625 184.125 C 402.6664 187.02919 403.4375 194.85168 403.4375 200.28125 C 403.4375 205.71082 401.91894 208.98604 400.65625 210.375 C 399.39356 211.76396 394.71368 213.92941 395.21875 217.84375 C 395.72383 221.75809 406.09581 227.17861 409 228.0625 C 411.90419 228.94638 415.03966 225.40245 417.3125 225.78125 C 419.58534 226.16006 426.91593 232.34122 429.0625 232.59375 C 431.20908 232.84629 431.95812 231.72256 436.125 231.34375 C 440.29188 230.96495 437.00968 229.07773 439.15625 227.5625 C 441.30282 226.04727 440.55949 227.5635 443.96875 227.4375 C 447.37802 227.31123 446.60469 225.28125 448.625 225.28125 C 450.64531 225.28125 450.79092 227.30108 452.9375 228.4375 C 455.08407 229.57393 462.53791 229.81583 468.09375 232.59375 C 473.00141 235.04758 475.41092 239.6591 475.9375 240.75 C 476.59988 239.93332 478.13082 238.49668 480.84375 238.40625 C 484.63182 238.27998 487.39181 241.06504 491.9375 240.8125 C 496.48319 240.55997 499.38976 235.63134 501.03125 235 C 502.67275 234.36865 505.1921 230.84248 507.84375 230.96875 C 510.4954 231.09502 512.14356 237.1499 513.40625 237.78125 C 514.66894 238.41259 520.73477 235.63515 522.25 234.625 C 523.76523 233.61485 524.6461 230.09375 525.65625 230.09375 C 526.6664 230.09375 527.5625 230.59375 527.5625 230.59375 L 534.375 226.9375 C 535.64765 225.95476 543.40814 219.94671 550.28125 214.9375 C 557.73112 209.50793 557.7373 205.45399 559 203.8125 C 560.26269 202.171 569.96875 202.4375 569.96875 202.4375 C 569.96875 202.4375 570.74778 208.35136 577.1875 207.59375 C 583.62722 206.83613 591.8125 194.10057 591.8125 190.3125 C 591.8125 186.52442 580.95653 178.57947 579.0625 173.78125 C 577.16846 168.98302 579.57519 161.14911 578.3125 158.75 C 577.04981 156.35089 570.48017 155.69765 569.34375 154.6875 C 568.35783 153.81113 569.40985 152.26204 569.71875 151.84375 C 569.39422 151.62555 567.56958 150.33295 566.1875 148.375 C 564.67227 146.22842 565.55156 144.71875 563.53125 144.71875 C 561.51095 144.71875 562.26697 147.89023 557.46875 146.375 C 552.67052 144.85977 544.09502 143.72399 543.96875 133.875 C 543.84248 124.02602 554.3125 120.08835 554.3125 114.40625 C 554.3125 108.72414 550.14863 110.51189 550.90625 106.21875 C 551.66386 101.9256 554.95226 101.28046 556.59375 98.25 C 558.23525 95.219543 557.0836 93.087881 558.09375 90.5625 C 559.1039 88.037119 563.03125 87.389436 563.03125 82.84375 C 563.03125 78.298063 561.88515 75.541403 560.875 74.53125 C 559.99112 73.647367 557.32933 74.010346 556.375 73.9375 C 555.92925 75.164312 555.30475 76.15625 554.4375 76.15625 C 552.16466 76.15625 552.66815 75.642767 548.375 73.875 C 544.08186 72.107233 542.07646 76.157519 540.6875 76.03125 C 539.29854 75.904981 540.29774 74.510629 538.65625 70.34375 C 537.01475 66.176871 539.15752 63.41561 539.03125 59.375 C 538.90498 55.33439 534.88689 54.315038 530.59375 54.0625 C 530.32543 54.04672 529.99952 54.0575 529.625 54.0625 z M 357.55469 85.310547 C 355.07394 85.351979 350.69569 92.35413 352.79492 93.458984 C 355.19403 94.721674 359.86747 86.894234 358.47852 85.757812 C 358.22598 85.44214 357.90908 85.304628 357.55469 85.310547 z M 342.31641 85.496094 C 340.44185 85.458114 337.34287 86.673668 333.34961 89.798828 C 327.54123 94.344514 319.96541 97.753724 314.66211 102.04688 C 309.35881 106.34002 305.06641 111.26416 305.06641 113.1582 C 305.06641 115.05223 311.38008 117.95557 313.40039 117.32422 C 315.42069 116.69288 314.41066 114.54764 318.83008 110.00195 C 323.2495 105.45626 325.01602 106.71884 326.53125 104.57227 C 328.04648 102.42569 324.51066 100.02538 327.91992 97.5 C 331.32919 94.974618 332.33985 98.004879 334.86523 96.742188 C 337.39061 95.479498 347.87205 89.670984 344.08398 86.261719 C 343.76831 85.78821 343.16848 85.513357 342.31641 85.496094 z M 380.15039 99.757812 C 378.89101 99.755269 374.33268 103.12821 377.76562 105.14062 C 381.42743 107.28719 381.20584 100.3729 380.35352 99.804688 C 380.30222 99.77312 380.23435 99.757982 380.15039 99.757812 z M 600.53125 113.71875 C 600.99842 113.90285 601.5348 114.1672 602.125 114.46875 C 601.53832 114.16899 600.99657 113.8987 600.53125 113.71875 z " />
  </g>
  <g
     inkscape:groupmode="layer"
     id="layer2"
     inkscape:label="Rivers/Lakes"
     style="display:inline"
     sodipodi:insensitive="true" />
  <g
     inkscape:groupmode="layer"
     id="layer20"
     inkscape:label="Names of Rivers etc."
     style="display:inline" />
  <g
     inkscape:groupmode="layer"
     id="layer5"
     inkscape:label="Caribean">
    <path
       id="path9165-5"
       clip-path="url(#clipPath10832-1-6)"
       style="color:#000000;font-style:normal;font-weight:normal;font-size:12.1406px;line-height:125%;font-family:Sans;letter-spacing:0px;word-spacing:0px;display:inline;overflow:visible;visibility:visible;fill:#c0c0c0;fill-opacity:1;fill-rule:evenodd;stroke:#000000;stroke-width:1;stroke-linecap:round;stroke-linejoin:miter;stroke-miterlimit:4;stroke-dasharray:none;stroke-dashoffset:0;stroke-opacity:1;marker:none;enable-background:accumulate"
       d="M 30.886719 113.87109 C 28.704101 113.87598 27.511719 114.46289 25.636719 115.86914 C 23.493862 117.47628 25.993862 121.76116 26.886719 123.54688 C 27.779576 125.33259 30.280412 125.33343 32.958984 124.61914 C 35.637555 123.90485 37.601841 121.94001 37.958984 120.1543 C 38.316127 118.36858 36.709822 117.65346 36.53125 116.58203 C 36.352679 115.5106 38.31557 115.33343 37.244141 114.61914 C 36.172712 113.90485 33.851005 114.79715 31.886719 113.9043 C 31.529576 113.88198 31.198521 113.8704 30.886719 113.87109 z M 108.80273 155.64062 C 107.98975 155.70899 108.04882 156.93945 107.42383 156.93945 C 106.70954 156.93945 105.63728 156.40402 105.10156 157.29688 C 104.56585 158.18973 106.88727 158.90513 106.35156 159.97656 C 105.81585 161.04799 103.4947 160.5106 104.20898 162.83203 C 104.92327 165.15346 106.70982 169.43945 109.03125 171.93945 C 111.35268 174.43945 113.13699 175.8683 114.74414 176.04688 C 116.17271 176.40402 116.53125 174.79632 117.78125 174.08203 C 119.03125 173.36774 120.63839 173.18972 121.53125 172.29688 C 122.42411 171.40402 123.13811 171.04716 122.42383 170.1543 C 121.70954 169.26144 120.27985 165.1543 118.49414 163.9043 C 116.70842 162.6543 115.45898 161.58203 114.20898 161.58203 C 112.95898 161.58203 112.42244 160.68917 111.88672 159.08203 C 111.35101 157.47489 110.45898 156.0466 109.20898 155.68945 C 109.05273 155.64481 108.91888 155.63086 108.80273 155.64062 z M 44.386719 221.51172 C 40.279576 221.51172 37.601562 224.36831 36.351562 227.04688 C 35.101562 229.72546 33.85212 229.36802 33.316406 230.43945 C 32.780691 231.51088 34.56557 232.22629 34.744141 233.11914 C 34.922712 234.012 34.566406 235.26144 33.316406 237.4043 C 32.066406 239.54715 32.066965 239.9043 32.78125 241.1543 C 33.495536 242.4043 34.387834 243.29659 34.566406 246.68945 C 34.744977 250.08231 37.066406 251.51117 39.566406 252.04688 C 42.066406 252.5826 53.494698 251.68917 55.458984 252.58203 C 57.423269 253.47489 59.924107 254.90513 62.78125 255.97656 C 65.638393 257.04798 68.852121 260.61941 70.816406 262.22656 C 72.780692 263.8337 74.387556 268.29659 76.708984 272.93945 C 78.137556 275.97517 78.493862 276.69057 78.136719 279.36914 C 77.779576 282.04771 75.101005 283.83203 73.136719 286.33203 C 71.172433 288.83203 74.030412 288.11802 75.458984 290.43945 C 76.887555 292.76088 77.244141 295.43945 77.244141 299.18945 C 77.244141 302.93945 76.708147 304.90403 80.636719 309.54688 C 84.56529 314.18974 83.138393 315.08287 86.53125 317.4043 C 89.924107 319.72573 91.888114 317.4043 93.673828 313.6543 C 95.459542 309.9043 96.530134 308.11858 95.101562 304.9043 C 93.67299 301.69001 94.387276 298.8326 95.101562 297.04688 C 95.815848 295.26117 94.565848 295.0837 92.601562 293.47656 C 90.637276 291.86941 91.708147 290.61914 93.136719 289.36914 C 94.56529 288.11914 94.209542 287.76117 96.173828 289.54688 C 98.138114 291.3326 98.851005 291.51088 103.13672 286.68945 C 107.42243 281.86802 104.74414 277.58343 103.49414 274.36914 C 102.24414 271.15486 100.45926 267.762 100.81641 263.11914 C 101.17355 258.47629 104.56529 258.47656 105.63672 255.97656 C 106.70814 253.47656 104.92411 251.68917 102.78125 251.33203 C 100.63839 250.97489 92.779576 250.26144 88.136719 249.9043 C 83.493862 249.54715 79.566685 249.01117 77.423828 247.04688 C 75.280971 245.08259 73.8524 242.5837 69.923828 242.22656 C 65.995257 241.86941 66.3524 239.012 63.673828 236.86914 C 60.995257 234.72629 59.923269 234.9043 57.958984 233.6543 C 55.994698 232.4043 53.137555 226.69084 51.708984 224.72656 C 50.280412 222.76227 48.673828 223.83343 47.423828 223.11914 C 46.173828 222.40486 48.493862 221.51172 44.386719 221.51172 z M 68.136719 270.08203 C 65.101005 270.08203 63.673549 269.90513 62.066406 273.47656 C 60.459264 277.04798 61.709264 277.04688 63.316406 277.04688 C 64.923549 277.04688 64.744141 276.8683 65.994141 277.04688 C 68.851284 277.93974 71.887276 278.83287 72.601562 277.4043 C 73.315848 275.97573 73.673828 273.65403 72.423828 272.04688 C 71.173828 270.43974 71.172433 270.08203 68.136719 270.08203 z " />
    <rect
       clip-path="url(#clipPath10804-4)"
       y="129.35942"
       x="11.45197"
       height="123.57143"
       width="136.42857"
       id="rect9245"
       style="font-style:normal;font-weight:normal;font-size:12.1406px;line-height:125%;font-family:Sans;letter-spacing:0px;word-spacing:0px;display:inline;fill:none;stroke:#737373;stroke-width:0.812;stroke-linejoin:miter;stroke-miterlimit:4;stroke-dasharray:none;stroke-opacity:1"
       transform="translate(3.4945784,76.94013)" />
    <rect
       clip-path="url(#clipPath10800-7)"
       style="font-style:normal;font-weight:normal;font-size:12.1406px;line-height:125%;font-family:Sans;letter-spacing:0px;word-spacing:0px;display:inline;fill:none;stroke:#737373;stroke-width:0.821097;stroke-linejoin:miter;stroke-miterlimit:4;stroke-dasharray:none;stroke-opacity:1"
       id="rect9247"
       width="184.95319"
       height="93.204811"
       x="11.45197"
       y="13.359419"
       transform="translate(3.4945784,80.94013)" />
  </g>
  <g
     inkscape:groupmode="layer"
     id="layer18"
     inkscape:label="Layer"
     style="display:inline" />
</svg>
